M48
; DRILL file {KiCad 5.1.5-5.1.5} date Sun 29 Dec 2019 19:55:16 AEDT
; FORMAT={-:-/ absolute / inch / decimal}
; #@! TF.CreationDate,2019-12-29T19:55:16+11:00
; #@! TF.GenerationSoftware,Kicad,Pcbnew,5.1.5-5.1.5
; #@! TF.FileFunction,Plated,1,2,PTH
FMAT,2
INCH
T1C0.0157
T2C0.0276
T3C0.0315
T4C0.0394
T5C0.0433
T6C0.1378
%
G90
G05
T1
X4.275Y-1.9496
T2
X2.8Y-0.3
X2.8Y-1.5
X2.9Y-0.3
X2.9Y-1.5
X3.0Y-0.3
X3.0Y-1.5
X3.1Y-0.3
X3.1Y-1.5
X3.2Y-0.3
X3.2Y-1.5
X3.8Y-0.3
X3.8Y-1.5
X3.9Y-0.3
X3.9Y-1.5
X4.0Y-0.3
X4.0Y-1.5
X4.1Y-0.3
X4.1Y-1.5
X4.2Y-0.3
X4.2Y-1.5
X5.8Y-0.3
X5.8Y-1.5
X5.9Y-0.3
X5.9Y-1.5
X6.0Y-0.3
X6.0Y-1.5
X6.1Y-0.3
X6.1Y-1.5
X6.2Y-0.3
X6.2Y-1.5
X4.8Y-0.3
X4.8Y-1.5
X4.9Y-0.3
X4.9Y-1.5
X5.0Y-0.3
X5.0Y-1.5
X5.1Y-0.3
X5.1Y-1.5
X5.2Y-0.3
X5.2Y-1.5
T3
X4.0Y-2.4622
X4.0Y-2.6
X5.1Y-2.4031
X5.1Y-2.6
T4
X4.3Y-2.9
X4.4Y-2.9
X4.5Y-2.9
X4.6Y-2.9
T5
X2.8441Y-2.4228
X2.8441Y-2.6
X3.1Y-2.4228
X3.1Y-2.6
X5.4441Y-2.4228
X5.4441Y-2.6
X5.7Y-2.4228
X5.7Y-2.6
X5.4441Y-1.9228
X5.4441Y-2.1
X5.7Y-1.9228
X5.7Y-2.1
X2.8441Y-1.9228
X2.8441Y-2.1
X3.1Y-1.9228
X3.1Y-2.1
X5.9441Y-1.9228
X5.9441Y-2.1
X6.2Y-1.9228
X6.2Y-2.1
X3.3441Y-1.9228
X3.3441Y-2.1
X3.6Y-1.9228
X3.6Y-2.1
X5.9441Y-2.4228
X5.9441Y-2.6
X6.2Y-2.4228
X6.2Y-2.6
X3.3441Y-2.4228
X3.3441Y-2.6
X3.6Y-2.4228
X3.6Y-2.6
T6
X2.8Y0.1
X2.8Y-3.1
X6.2Y0.1
X6.2Y-3.1
T0
M30
