G04 #@! TF.GenerationSoftware,KiCad,Pcbnew,5.1.5-5.1.5*
G04 #@! TF.CreationDate,2019-12-29T19:55:11+11:00*
G04 #@! TF.ProjectId,inchdigits,696e6368-6469-4676-9974-732e6b696361,rev?*
G04 #@! TF.SameCoordinates,Original*
G04 #@! TF.FileFunction,Soldermask,Top*
G04 #@! TF.FilePolarity,Negative*
%FSLAX46Y46*%
G04 Gerber Fmt 4.6, Leading zero omitted, Abs format (unit mm)*
G04 Created by KiCad (PCBNEW 5.1.5-5.1.5) date 2019-12-29 19:55:11*
%MOMM*%
%LPD*%
G04 APERTURE LIST*
%ADD10C,0.100000*%
G04 APERTURE END LIST*
D10*
G36*
X158515787Y-75325462D02*
G01*
X158515790Y-75325463D01*
X158515789Y-75325463D01*
X159162029Y-75593144D01*
X159743631Y-75981758D01*
X160238242Y-76476369D01*
X160626856Y-77057971D01*
X160626856Y-77057972D01*
X160894538Y-77704213D01*
X161031000Y-78390256D01*
X161031000Y-79089744D01*
X160894538Y-79775787D01*
X160894537Y-79775789D01*
X160626856Y-80422029D01*
X160238242Y-81003631D01*
X159743631Y-81498242D01*
X159162029Y-81886856D01*
X158705068Y-82076135D01*
X158515787Y-82154538D01*
X157829744Y-82291000D01*
X157130256Y-82291000D01*
X156444213Y-82154538D01*
X156254932Y-82076135D01*
X155797971Y-81886856D01*
X155216369Y-81498242D01*
X154721758Y-81003631D01*
X154333144Y-80422029D01*
X154065463Y-79775789D01*
X154065462Y-79775787D01*
X153929000Y-79089744D01*
X153929000Y-78390256D01*
X154065462Y-77704213D01*
X154333144Y-77057972D01*
X154333144Y-77057971D01*
X154721758Y-76476369D01*
X155216369Y-75981758D01*
X155797971Y-75593144D01*
X156444211Y-75325463D01*
X156444210Y-75325463D01*
X156444213Y-75325462D01*
X157130256Y-75189000D01*
X157829744Y-75189000D01*
X158515787Y-75325462D01*
G37*
G36*
X72155787Y-75325462D02*
G01*
X72155790Y-75325463D01*
X72155789Y-75325463D01*
X72802029Y-75593144D01*
X73383631Y-75981758D01*
X73878242Y-76476369D01*
X74266856Y-77057971D01*
X74266856Y-77057972D01*
X74534538Y-77704213D01*
X74671000Y-78390256D01*
X74671000Y-79089744D01*
X74534538Y-79775787D01*
X74534537Y-79775789D01*
X74266856Y-80422029D01*
X73878242Y-81003631D01*
X73383631Y-81498242D01*
X72802029Y-81886856D01*
X72345068Y-82076135D01*
X72155787Y-82154538D01*
X71469744Y-82291000D01*
X70770256Y-82291000D01*
X70084213Y-82154538D01*
X69894932Y-82076135D01*
X69437971Y-81886856D01*
X68856369Y-81498242D01*
X68361758Y-81003631D01*
X67973144Y-80422029D01*
X67705463Y-79775789D01*
X67705462Y-79775787D01*
X67569000Y-79089744D01*
X67569000Y-78390256D01*
X67705462Y-77704213D01*
X67973144Y-77057972D01*
X67973144Y-77057971D01*
X68361758Y-76476369D01*
X68856369Y-75981758D01*
X69437971Y-75593144D01*
X70084211Y-75325463D01*
X70084210Y-75325463D01*
X70084213Y-75325462D01*
X70770256Y-75189000D01*
X71469744Y-75189000D01*
X72155787Y-75325462D01*
G37*
G36*
X110121000Y-74561000D02*
G01*
X108319000Y-74561000D01*
X108319000Y-72759000D01*
X110121000Y-72759000D01*
X110121000Y-74561000D01*
G37*
G36*
X116953512Y-72763927D02*
G01*
X117102812Y-72793624D01*
X117266784Y-72861544D01*
X117414354Y-72960147D01*
X117539853Y-73085646D01*
X117638456Y-73233216D01*
X117706376Y-73397188D01*
X117741000Y-73571259D01*
X117741000Y-73748741D01*
X117706376Y-73922812D01*
X117638456Y-74086784D01*
X117539853Y-74234354D01*
X117414354Y-74359853D01*
X117266784Y-74458456D01*
X117102812Y-74526376D01*
X116953512Y-74556073D01*
X116928742Y-74561000D01*
X116751258Y-74561000D01*
X116726488Y-74556073D01*
X116577188Y-74526376D01*
X116413216Y-74458456D01*
X116265646Y-74359853D01*
X116140147Y-74234354D01*
X116041544Y-74086784D01*
X115973624Y-73922812D01*
X115939000Y-73748741D01*
X115939000Y-73571259D01*
X115973624Y-73397188D01*
X116041544Y-73233216D01*
X116140147Y-73085646D01*
X116265646Y-72960147D01*
X116413216Y-72861544D01*
X116577188Y-72793624D01*
X116726488Y-72763927D01*
X116751258Y-72759000D01*
X116928742Y-72759000D01*
X116953512Y-72763927D01*
G37*
G36*
X114413512Y-72763927D02*
G01*
X114562812Y-72793624D01*
X114726784Y-72861544D01*
X114874354Y-72960147D01*
X114999853Y-73085646D01*
X115098456Y-73233216D01*
X115166376Y-73397188D01*
X115201000Y-73571259D01*
X115201000Y-73748741D01*
X115166376Y-73922812D01*
X115098456Y-74086784D01*
X114999853Y-74234354D01*
X114874354Y-74359853D01*
X114726784Y-74458456D01*
X114562812Y-74526376D01*
X114413512Y-74556073D01*
X114388742Y-74561000D01*
X114211258Y-74561000D01*
X114186488Y-74556073D01*
X114037188Y-74526376D01*
X113873216Y-74458456D01*
X113725646Y-74359853D01*
X113600147Y-74234354D01*
X113501544Y-74086784D01*
X113433624Y-73922812D01*
X113399000Y-73748741D01*
X113399000Y-73571259D01*
X113433624Y-73397188D01*
X113501544Y-73233216D01*
X113600147Y-73085646D01*
X113725646Y-72960147D01*
X113873216Y-72861544D01*
X114037188Y-72793624D01*
X114186488Y-72763927D01*
X114211258Y-72759000D01*
X114388742Y-72759000D01*
X114413512Y-72763927D01*
G37*
G36*
X111873512Y-72763927D02*
G01*
X112022812Y-72793624D01*
X112186784Y-72861544D01*
X112334354Y-72960147D01*
X112459853Y-73085646D01*
X112558456Y-73233216D01*
X112626376Y-73397188D01*
X112661000Y-73571259D01*
X112661000Y-73748741D01*
X112626376Y-73922812D01*
X112558456Y-74086784D01*
X112459853Y-74234354D01*
X112334354Y-74359853D01*
X112186784Y-74458456D01*
X112022812Y-74526376D01*
X111873512Y-74556073D01*
X111848742Y-74561000D01*
X111671258Y-74561000D01*
X111646488Y-74556073D01*
X111497188Y-74526376D01*
X111333216Y-74458456D01*
X111185646Y-74359853D01*
X111060147Y-74234354D01*
X110961544Y-74086784D01*
X110893624Y-73922812D01*
X110859000Y-73748741D01*
X110859000Y-73571259D01*
X110893624Y-73397188D01*
X110961544Y-73233216D01*
X111060147Y-73085646D01*
X111185646Y-72960147D01*
X111333216Y-72861544D01*
X111497188Y-72793624D01*
X111646488Y-72763927D01*
X111671258Y-72759000D01*
X111848742Y-72759000D01*
X111873512Y-72763927D01*
G37*
G36*
X79046564Y-65029389D02*
G01*
X79237833Y-65108615D01*
X79237835Y-65108616D01*
X79358138Y-65189000D01*
X79409973Y-65223635D01*
X79556365Y-65370027D01*
X79671385Y-65542167D01*
X79750611Y-65733436D01*
X79791000Y-65936484D01*
X79791000Y-66143516D01*
X79750611Y-66346564D01*
X79671385Y-66537833D01*
X79671384Y-66537835D01*
X79556365Y-66709973D01*
X79409973Y-66856365D01*
X79237835Y-66971384D01*
X79237834Y-66971385D01*
X79237833Y-66971385D01*
X79046564Y-67050611D01*
X78843516Y-67091000D01*
X78636484Y-67091000D01*
X78433436Y-67050611D01*
X78242167Y-66971385D01*
X78242166Y-66971385D01*
X78242165Y-66971384D01*
X78070027Y-66856365D01*
X77923635Y-66709973D01*
X77808616Y-66537835D01*
X77808615Y-66537833D01*
X77729389Y-66346564D01*
X77689000Y-66143516D01*
X77689000Y-65936484D01*
X77729389Y-65733436D01*
X77808615Y-65542167D01*
X77923635Y-65370027D01*
X78070027Y-65223635D01*
X78121862Y-65189000D01*
X78242165Y-65108616D01*
X78242167Y-65108615D01*
X78433436Y-65029389D01*
X78636484Y-64989000D01*
X78843516Y-64989000D01*
X79046564Y-65029389D01*
G37*
G36*
X157786564Y-65029389D02*
G01*
X157977833Y-65108615D01*
X157977835Y-65108616D01*
X158098138Y-65189000D01*
X158149973Y-65223635D01*
X158296365Y-65370027D01*
X158411385Y-65542167D01*
X158490611Y-65733436D01*
X158531000Y-65936484D01*
X158531000Y-66143516D01*
X158490611Y-66346564D01*
X158411385Y-66537833D01*
X158411384Y-66537835D01*
X158296365Y-66709973D01*
X158149973Y-66856365D01*
X157977835Y-66971384D01*
X157977834Y-66971385D01*
X157977833Y-66971385D01*
X157786564Y-67050611D01*
X157583516Y-67091000D01*
X157376484Y-67091000D01*
X157173436Y-67050611D01*
X156982167Y-66971385D01*
X156982166Y-66971385D01*
X156982165Y-66971384D01*
X156810027Y-66856365D01*
X156663635Y-66709973D01*
X156548616Y-66537835D01*
X156548615Y-66537833D01*
X156469389Y-66346564D01*
X156429000Y-66143516D01*
X156429000Y-65936484D01*
X156469389Y-65733436D01*
X156548615Y-65542167D01*
X156663635Y-65370027D01*
X156810027Y-65223635D01*
X156861862Y-65189000D01*
X156982165Y-65108616D01*
X156982167Y-65108615D01*
X157173436Y-65029389D01*
X157376484Y-64989000D01*
X157583516Y-64989000D01*
X157786564Y-65029389D01*
G37*
G36*
X151286564Y-65029389D02*
G01*
X151477833Y-65108615D01*
X151477835Y-65108616D01*
X151598138Y-65189000D01*
X151649973Y-65223635D01*
X151796365Y-65370027D01*
X151911385Y-65542167D01*
X151990611Y-65733436D01*
X152031000Y-65936484D01*
X152031000Y-66143516D01*
X151990611Y-66346564D01*
X151911385Y-66537833D01*
X151911384Y-66537835D01*
X151796365Y-66709973D01*
X151649973Y-66856365D01*
X151477835Y-66971384D01*
X151477834Y-66971385D01*
X151477833Y-66971385D01*
X151286564Y-67050611D01*
X151083516Y-67091000D01*
X150876484Y-67091000D01*
X150673436Y-67050611D01*
X150482167Y-66971385D01*
X150482166Y-66971385D01*
X150482165Y-66971384D01*
X150310027Y-66856365D01*
X150163635Y-66709973D01*
X150048616Y-66537835D01*
X150048615Y-66537833D01*
X149969389Y-66346564D01*
X149929000Y-66143516D01*
X149929000Y-65936484D01*
X149969389Y-65733436D01*
X150048615Y-65542167D01*
X150163635Y-65370027D01*
X150310027Y-65223635D01*
X150361862Y-65189000D01*
X150482165Y-65108616D01*
X150482167Y-65108615D01*
X150673436Y-65029389D01*
X150876484Y-64989000D01*
X151083516Y-64989000D01*
X151286564Y-65029389D01*
G37*
G36*
X138586564Y-65029389D02*
G01*
X138777833Y-65108615D01*
X138777835Y-65108616D01*
X138898138Y-65189000D01*
X138949973Y-65223635D01*
X139096365Y-65370027D01*
X139211385Y-65542167D01*
X139290611Y-65733436D01*
X139331000Y-65936484D01*
X139331000Y-66143516D01*
X139290611Y-66346564D01*
X139211385Y-66537833D01*
X139211384Y-66537835D01*
X139096365Y-66709973D01*
X138949973Y-66856365D01*
X138777835Y-66971384D01*
X138777834Y-66971385D01*
X138777833Y-66971385D01*
X138586564Y-67050611D01*
X138383516Y-67091000D01*
X138176484Y-67091000D01*
X137973436Y-67050611D01*
X137782167Y-66971385D01*
X137782166Y-66971385D01*
X137782165Y-66971384D01*
X137610027Y-66856365D01*
X137463635Y-66709973D01*
X137348616Y-66537835D01*
X137348615Y-66537833D01*
X137269389Y-66346564D01*
X137229000Y-66143516D01*
X137229000Y-65936484D01*
X137269389Y-65733436D01*
X137348615Y-65542167D01*
X137463635Y-65370027D01*
X137610027Y-65223635D01*
X137661862Y-65189000D01*
X137782165Y-65108616D01*
X137782167Y-65108615D01*
X137973436Y-65029389D01*
X138176484Y-64989000D01*
X138383516Y-64989000D01*
X138586564Y-65029389D01*
G37*
G36*
X145086564Y-65029389D02*
G01*
X145277833Y-65108615D01*
X145277835Y-65108616D01*
X145398138Y-65189000D01*
X145449973Y-65223635D01*
X145596365Y-65370027D01*
X145711385Y-65542167D01*
X145790611Y-65733436D01*
X145831000Y-65936484D01*
X145831000Y-66143516D01*
X145790611Y-66346564D01*
X145711385Y-66537833D01*
X145711384Y-66537835D01*
X145596365Y-66709973D01*
X145449973Y-66856365D01*
X145277835Y-66971384D01*
X145277834Y-66971385D01*
X145277833Y-66971385D01*
X145086564Y-67050611D01*
X144883516Y-67091000D01*
X144676484Y-67091000D01*
X144473436Y-67050611D01*
X144282167Y-66971385D01*
X144282166Y-66971385D01*
X144282165Y-66971384D01*
X144110027Y-66856365D01*
X143963635Y-66709973D01*
X143848616Y-66537835D01*
X143848615Y-66537833D01*
X143769389Y-66346564D01*
X143729000Y-66143516D01*
X143729000Y-65936484D01*
X143769389Y-65733436D01*
X143848615Y-65542167D01*
X143963635Y-65370027D01*
X144110027Y-65223635D01*
X144161862Y-65189000D01*
X144282165Y-65108616D01*
X144282167Y-65108615D01*
X144473436Y-65029389D01*
X144676484Y-64989000D01*
X144883516Y-64989000D01*
X145086564Y-65029389D01*
G37*
G36*
X85246564Y-65029389D02*
G01*
X85437833Y-65108615D01*
X85437835Y-65108616D01*
X85558138Y-65189000D01*
X85609973Y-65223635D01*
X85756365Y-65370027D01*
X85871385Y-65542167D01*
X85950611Y-65733436D01*
X85991000Y-65936484D01*
X85991000Y-66143516D01*
X85950611Y-66346564D01*
X85871385Y-66537833D01*
X85871384Y-66537835D01*
X85756365Y-66709973D01*
X85609973Y-66856365D01*
X85437835Y-66971384D01*
X85437834Y-66971385D01*
X85437833Y-66971385D01*
X85246564Y-67050611D01*
X85043516Y-67091000D01*
X84836484Y-67091000D01*
X84633436Y-67050611D01*
X84442167Y-66971385D01*
X84442166Y-66971385D01*
X84442165Y-66971384D01*
X84270027Y-66856365D01*
X84123635Y-66709973D01*
X84008616Y-66537835D01*
X84008615Y-66537833D01*
X83929389Y-66346564D01*
X83889000Y-66143516D01*
X83889000Y-65936484D01*
X83929389Y-65733436D01*
X84008615Y-65542167D01*
X84123635Y-65370027D01*
X84270027Y-65223635D01*
X84321862Y-65189000D01*
X84442165Y-65108616D01*
X84442167Y-65108615D01*
X84633436Y-65029389D01*
X84836484Y-64989000D01*
X85043516Y-64989000D01*
X85246564Y-65029389D01*
G37*
G36*
X91746564Y-65029389D02*
G01*
X91937833Y-65108615D01*
X91937835Y-65108616D01*
X92058138Y-65189000D01*
X92109973Y-65223635D01*
X92256365Y-65370027D01*
X92371385Y-65542167D01*
X92450611Y-65733436D01*
X92491000Y-65936484D01*
X92491000Y-66143516D01*
X92450611Y-66346564D01*
X92371385Y-66537833D01*
X92371384Y-66537835D01*
X92256365Y-66709973D01*
X92109973Y-66856365D01*
X91937835Y-66971384D01*
X91937834Y-66971385D01*
X91937833Y-66971385D01*
X91746564Y-67050611D01*
X91543516Y-67091000D01*
X91336484Y-67091000D01*
X91133436Y-67050611D01*
X90942167Y-66971385D01*
X90942166Y-66971385D01*
X90942165Y-66971384D01*
X90770027Y-66856365D01*
X90623635Y-66709973D01*
X90508616Y-66537835D01*
X90508615Y-66537833D01*
X90429389Y-66346564D01*
X90389000Y-66143516D01*
X90389000Y-65936484D01*
X90429389Y-65733436D01*
X90508615Y-65542167D01*
X90623635Y-65370027D01*
X90770027Y-65223635D01*
X90821862Y-65189000D01*
X90942165Y-65108616D01*
X90942167Y-65108615D01*
X91133436Y-65029389D01*
X91336484Y-64989000D01*
X91543516Y-64989000D01*
X91746564Y-65029389D01*
G37*
G36*
X72546564Y-65029389D02*
G01*
X72737833Y-65108615D01*
X72737835Y-65108616D01*
X72858138Y-65189000D01*
X72909973Y-65223635D01*
X73056365Y-65370027D01*
X73171385Y-65542167D01*
X73250611Y-65733436D01*
X73291000Y-65936484D01*
X73291000Y-66143516D01*
X73250611Y-66346564D01*
X73171385Y-66537833D01*
X73171384Y-66537835D01*
X73056365Y-66709973D01*
X72909973Y-66856365D01*
X72737835Y-66971384D01*
X72737834Y-66971385D01*
X72737833Y-66971385D01*
X72546564Y-67050611D01*
X72343516Y-67091000D01*
X72136484Y-67091000D01*
X71933436Y-67050611D01*
X71742167Y-66971385D01*
X71742166Y-66971385D01*
X71742165Y-66971384D01*
X71570027Y-66856365D01*
X71423635Y-66709973D01*
X71308616Y-66537835D01*
X71308615Y-66537833D01*
X71229389Y-66346564D01*
X71189000Y-66143516D01*
X71189000Y-65936484D01*
X71229389Y-65733436D01*
X71308615Y-65542167D01*
X71423635Y-65370027D01*
X71570027Y-65223635D01*
X71621862Y-65189000D01*
X71742165Y-65108616D01*
X71742167Y-65108615D01*
X71933436Y-65029389D01*
X72136484Y-64989000D01*
X72343516Y-64989000D01*
X72546564Y-65029389D01*
G37*
G36*
X129788228Y-65221703D02*
G01*
X129943100Y-65285853D01*
X130082481Y-65378985D01*
X130201015Y-65497519D01*
X130294147Y-65636900D01*
X130358297Y-65791772D01*
X130391000Y-65956184D01*
X130391000Y-66123816D01*
X130358297Y-66288228D01*
X130294147Y-66443100D01*
X130201015Y-66582481D01*
X130082481Y-66701015D01*
X129943100Y-66794147D01*
X129788228Y-66858297D01*
X129623816Y-66891000D01*
X129456184Y-66891000D01*
X129291772Y-66858297D01*
X129136900Y-66794147D01*
X128997519Y-66701015D01*
X128878985Y-66582481D01*
X128785853Y-66443100D01*
X128721703Y-66288228D01*
X128689000Y-66123816D01*
X128689000Y-65956184D01*
X128721703Y-65791772D01*
X128785853Y-65636900D01*
X128878985Y-65497519D01*
X128997519Y-65378985D01*
X129136900Y-65285853D01*
X129291772Y-65221703D01*
X129456184Y-65189000D01*
X129623816Y-65189000D01*
X129788228Y-65221703D01*
G37*
G36*
X101848228Y-65221703D02*
G01*
X102003100Y-65285853D01*
X102142481Y-65378985D01*
X102261015Y-65497519D01*
X102354147Y-65636900D01*
X102418297Y-65791772D01*
X102451000Y-65956184D01*
X102451000Y-66123816D01*
X102418297Y-66288228D01*
X102354147Y-66443100D01*
X102261015Y-66582481D01*
X102142481Y-66701015D01*
X102003100Y-66794147D01*
X101848228Y-66858297D01*
X101683816Y-66891000D01*
X101516184Y-66891000D01*
X101351772Y-66858297D01*
X101196900Y-66794147D01*
X101057519Y-66701015D01*
X100938985Y-66582481D01*
X100845853Y-66443100D01*
X100781703Y-66288228D01*
X100749000Y-66123816D01*
X100749000Y-65956184D01*
X100781703Y-65791772D01*
X100845853Y-65636900D01*
X100938985Y-65497519D01*
X101057519Y-65378985D01*
X101196900Y-65285853D01*
X101351772Y-65221703D01*
X101516184Y-65189000D01*
X101683816Y-65189000D01*
X101848228Y-65221703D01*
G37*
G36*
X101848228Y-61721703D02*
G01*
X102003100Y-61785853D01*
X102142481Y-61878985D01*
X102261015Y-61997519D01*
X102354147Y-62136900D01*
X102418297Y-62291772D01*
X102451000Y-62456184D01*
X102451000Y-62623816D01*
X102418297Y-62788228D01*
X102354147Y-62943100D01*
X102261015Y-63082481D01*
X102142481Y-63201015D01*
X102003100Y-63294147D01*
X101848228Y-63358297D01*
X101683816Y-63391000D01*
X101516184Y-63391000D01*
X101351772Y-63358297D01*
X101196900Y-63294147D01*
X101057519Y-63201015D01*
X100938985Y-63082481D01*
X100845853Y-62943100D01*
X100781703Y-62788228D01*
X100749000Y-62623816D01*
X100749000Y-62456184D01*
X100781703Y-62291772D01*
X100845853Y-62136900D01*
X100938985Y-61997519D01*
X101057519Y-61878985D01*
X101196900Y-61785853D01*
X101351772Y-61721703D01*
X101516184Y-61689000D01*
X101683816Y-61689000D01*
X101848228Y-61721703D01*
G37*
G36*
X157786564Y-60529389D02*
G01*
X157977833Y-60608615D01*
X157977835Y-60608616D01*
X158020165Y-60636900D01*
X158149973Y-60723635D01*
X158296365Y-60870027D01*
X158411385Y-61042167D01*
X158490611Y-61233436D01*
X158531000Y-61436484D01*
X158531000Y-61643516D01*
X158490611Y-61846564D01*
X158428083Y-61997520D01*
X158411384Y-62037835D01*
X158296365Y-62209973D01*
X158149973Y-62356365D01*
X157977835Y-62471384D01*
X157977834Y-62471385D01*
X157977833Y-62471385D01*
X157786564Y-62550611D01*
X157583516Y-62591000D01*
X157376484Y-62591000D01*
X157173436Y-62550611D01*
X156982167Y-62471385D01*
X156982166Y-62471385D01*
X156982165Y-62471384D01*
X156810027Y-62356365D01*
X156663635Y-62209973D01*
X156548616Y-62037835D01*
X156531917Y-61997520D01*
X156469389Y-61846564D01*
X156429000Y-61643516D01*
X156429000Y-61436484D01*
X156469389Y-61233436D01*
X156548615Y-61042167D01*
X156663635Y-60870027D01*
X156810027Y-60723635D01*
X156939835Y-60636900D01*
X156982165Y-60608616D01*
X156982167Y-60608615D01*
X157173436Y-60529389D01*
X157376484Y-60489000D01*
X157583516Y-60489000D01*
X157786564Y-60529389D01*
G37*
G36*
X91746564Y-60529389D02*
G01*
X91937833Y-60608615D01*
X91937835Y-60608616D01*
X91980165Y-60636900D01*
X92109973Y-60723635D01*
X92256365Y-60870027D01*
X92371385Y-61042167D01*
X92450611Y-61233436D01*
X92491000Y-61436484D01*
X92491000Y-61643516D01*
X92450611Y-61846564D01*
X92388083Y-61997520D01*
X92371384Y-62037835D01*
X92256365Y-62209973D01*
X92109973Y-62356365D01*
X91937835Y-62471384D01*
X91937834Y-62471385D01*
X91937833Y-62471385D01*
X91746564Y-62550611D01*
X91543516Y-62591000D01*
X91336484Y-62591000D01*
X91133436Y-62550611D01*
X90942167Y-62471385D01*
X90942166Y-62471385D01*
X90942165Y-62471384D01*
X90770027Y-62356365D01*
X90623635Y-62209973D01*
X90508616Y-62037835D01*
X90491917Y-61997520D01*
X90429389Y-61846564D01*
X90389000Y-61643516D01*
X90389000Y-61436484D01*
X90429389Y-61233436D01*
X90508615Y-61042167D01*
X90623635Y-60870027D01*
X90770027Y-60723635D01*
X90899835Y-60636900D01*
X90942165Y-60608616D01*
X90942167Y-60608615D01*
X91133436Y-60529389D01*
X91336484Y-60489000D01*
X91543516Y-60489000D01*
X91746564Y-60529389D01*
G37*
G36*
X72546564Y-60529389D02*
G01*
X72737833Y-60608615D01*
X72737835Y-60608616D01*
X72780165Y-60636900D01*
X72909973Y-60723635D01*
X73056365Y-60870027D01*
X73171385Y-61042167D01*
X73250611Y-61233436D01*
X73291000Y-61436484D01*
X73291000Y-61643516D01*
X73250611Y-61846564D01*
X73188083Y-61997520D01*
X73171384Y-62037835D01*
X73056365Y-62209973D01*
X72909973Y-62356365D01*
X72737835Y-62471384D01*
X72737834Y-62471385D01*
X72737833Y-62471385D01*
X72546564Y-62550611D01*
X72343516Y-62591000D01*
X72136484Y-62591000D01*
X71933436Y-62550611D01*
X71742167Y-62471385D01*
X71742166Y-62471385D01*
X71742165Y-62471384D01*
X71570027Y-62356365D01*
X71423635Y-62209973D01*
X71308616Y-62037835D01*
X71291917Y-61997520D01*
X71229389Y-61846564D01*
X71189000Y-61643516D01*
X71189000Y-61436484D01*
X71229389Y-61233436D01*
X71308615Y-61042167D01*
X71423635Y-60870027D01*
X71570027Y-60723635D01*
X71699835Y-60636900D01*
X71742165Y-60608616D01*
X71742167Y-60608615D01*
X71933436Y-60529389D01*
X72136484Y-60489000D01*
X72343516Y-60489000D01*
X72546564Y-60529389D01*
G37*
G36*
X138586564Y-60529389D02*
G01*
X138777833Y-60608615D01*
X138777835Y-60608616D01*
X138820165Y-60636900D01*
X138949973Y-60723635D01*
X139096365Y-60870027D01*
X139211385Y-61042167D01*
X139290611Y-61233436D01*
X139331000Y-61436484D01*
X139331000Y-61643516D01*
X139290611Y-61846564D01*
X139228083Y-61997520D01*
X139211384Y-62037835D01*
X139096365Y-62209973D01*
X138949973Y-62356365D01*
X138777835Y-62471384D01*
X138777834Y-62471385D01*
X138777833Y-62471385D01*
X138586564Y-62550611D01*
X138383516Y-62591000D01*
X138176484Y-62591000D01*
X137973436Y-62550611D01*
X137782167Y-62471385D01*
X137782166Y-62471385D01*
X137782165Y-62471384D01*
X137610027Y-62356365D01*
X137463635Y-62209973D01*
X137348616Y-62037835D01*
X137331917Y-61997520D01*
X137269389Y-61846564D01*
X137229000Y-61643516D01*
X137229000Y-61436484D01*
X137269389Y-61233436D01*
X137348615Y-61042167D01*
X137463635Y-60870027D01*
X137610027Y-60723635D01*
X137739835Y-60636900D01*
X137782165Y-60608616D01*
X137782167Y-60608615D01*
X137973436Y-60529389D01*
X138176484Y-60489000D01*
X138383516Y-60489000D01*
X138586564Y-60529389D01*
G37*
G36*
X79046564Y-60529389D02*
G01*
X79237833Y-60608615D01*
X79237835Y-60608616D01*
X79280165Y-60636900D01*
X79409973Y-60723635D01*
X79556365Y-60870027D01*
X79671385Y-61042167D01*
X79750611Y-61233436D01*
X79791000Y-61436484D01*
X79791000Y-61643516D01*
X79750611Y-61846564D01*
X79688083Y-61997520D01*
X79671384Y-62037835D01*
X79556365Y-62209973D01*
X79409973Y-62356365D01*
X79237835Y-62471384D01*
X79237834Y-62471385D01*
X79237833Y-62471385D01*
X79046564Y-62550611D01*
X78843516Y-62591000D01*
X78636484Y-62591000D01*
X78433436Y-62550611D01*
X78242167Y-62471385D01*
X78242166Y-62471385D01*
X78242165Y-62471384D01*
X78070027Y-62356365D01*
X77923635Y-62209973D01*
X77808616Y-62037835D01*
X77791917Y-61997520D01*
X77729389Y-61846564D01*
X77689000Y-61643516D01*
X77689000Y-61436484D01*
X77729389Y-61233436D01*
X77808615Y-61042167D01*
X77923635Y-60870027D01*
X78070027Y-60723635D01*
X78199835Y-60636900D01*
X78242165Y-60608616D01*
X78242167Y-60608615D01*
X78433436Y-60529389D01*
X78636484Y-60489000D01*
X78843516Y-60489000D01*
X79046564Y-60529389D01*
G37*
G36*
X85246564Y-60529389D02*
G01*
X85437833Y-60608615D01*
X85437835Y-60608616D01*
X85480165Y-60636900D01*
X85609973Y-60723635D01*
X85756365Y-60870027D01*
X85871385Y-61042167D01*
X85950611Y-61233436D01*
X85991000Y-61436484D01*
X85991000Y-61643516D01*
X85950611Y-61846564D01*
X85888083Y-61997520D01*
X85871384Y-62037835D01*
X85756365Y-62209973D01*
X85609973Y-62356365D01*
X85437835Y-62471384D01*
X85437834Y-62471385D01*
X85437833Y-62471385D01*
X85246564Y-62550611D01*
X85043516Y-62591000D01*
X84836484Y-62591000D01*
X84633436Y-62550611D01*
X84442167Y-62471385D01*
X84442166Y-62471385D01*
X84442165Y-62471384D01*
X84270027Y-62356365D01*
X84123635Y-62209973D01*
X84008616Y-62037835D01*
X83991917Y-61997520D01*
X83929389Y-61846564D01*
X83889000Y-61643516D01*
X83889000Y-61436484D01*
X83929389Y-61233436D01*
X84008615Y-61042167D01*
X84123635Y-60870027D01*
X84270027Y-60723635D01*
X84399835Y-60636900D01*
X84442165Y-60608616D01*
X84442167Y-60608615D01*
X84633436Y-60529389D01*
X84836484Y-60489000D01*
X85043516Y-60489000D01*
X85246564Y-60529389D01*
G37*
G36*
X145086564Y-60529389D02*
G01*
X145277833Y-60608615D01*
X145277835Y-60608616D01*
X145320165Y-60636900D01*
X145449973Y-60723635D01*
X145596365Y-60870027D01*
X145711385Y-61042167D01*
X145790611Y-61233436D01*
X145831000Y-61436484D01*
X145831000Y-61643516D01*
X145790611Y-61846564D01*
X145728083Y-61997520D01*
X145711384Y-62037835D01*
X145596365Y-62209973D01*
X145449973Y-62356365D01*
X145277835Y-62471384D01*
X145277834Y-62471385D01*
X145277833Y-62471385D01*
X145086564Y-62550611D01*
X144883516Y-62591000D01*
X144676484Y-62591000D01*
X144473436Y-62550611D01*
X144282167Y-62471385D01*
X144282166Y-62471385D01*
X144282165Y-62471384D01*
X144110027Y-62356365D01*
X143963635Y-62209973D01*
X143848616Y-62037835D01*
X143831917Y-61997520D01*
X143769389Y-61846564D01*
X143729000Y-61643516D01*
X143729000Y-61436484D01*
X143769389Y-61233436D01*
X143848615Y-61042167D01*
X143963635Y-60870027D01*
X144110027Y-60723635D01*
X144239835Y-60636900D01*
X144282165Y-60608616D01*
X144282167Y-60608615D01*
X144473436Y-60529389D01*
X144676484Y-60489000D01*
X144883516Y-60489000D01*
X145086564Y-60529389D01*
G37*
G36*
X151286564Y-60529389D02*
G01*
X151477833Y-60608615D01*
X151477835Y-60608616D01*
X151520165Y-60636900D01*
X151649973Y-60723635D01*
X151796365Y-60870027D01*
X151911385Y-61042167D01*
X151990611Y-61233436D01*
X152031000Y-61436484D01*
X152031000Y-61643516D01*
X151990611Y-61846564D01*
X151928083Y-61997520D01*
X151911384Y-62037835D01*
X151796365Y-62209973D01*
X151649973Y-62356365D01*
X151477835Y-62471384D01*
X151477834Y-62471385D01*
X151477833Y-62471385D01*
X151286564Y-62550611D01*
X151083516Y-62591000D01*
X150876484Y-62591000D01*
X150673436Y-62550611D01*
X150482167Y-62471385D01*
X150482166Y-62471385D01*
X150482165Y-62471384D01*
X150310027Y-62356365D01*
X150163635Y-62209973D01*
X150048616Y-62037835D01*
X150031917Y-61997520D01*
X149969389Y-61846564D01*
X149929000Y-61643516D01*
X149929000Y-61436484D01*
X149969389Y-61233436D01*
X150048615Y-61042167D01*
X150163635Y-60870027D01*
X150310027Y-60723635D01*
X150439835Y-60636900D01*
X150482165Y-60608616D01*
X150482167Y-60608615D01*
X150673436Y-60529389D01*
X150876484Y-60489000D01*
X151083516Y-60489000D01*
X151286564Y-60529389D01*
G37*
G36*
X129788228Y-60221703D02*
G01*
X129943100Y-60285853D01*
X130082481Y-60378985D01*
X130201015Y-60497519D01*
X130294147Y-60636900D01*
X130358297Y-60791772D01*
X130391000Y-60956184D01*
X130391000Y-61123816D01*
X130358297Y-61288228D01*
X130294147Y-61443100D01*
X130201015Y-61582481D01*
X130082481Y-61701015D01*
X129943100Y-61794147D01*
X129788228Y-61858297D01*
X129623816Y-61891000D01*
X129456184Y-61891000D01*
X129291772Y-61858297D01*
X129136900Y-61794147D01*
X128997519Y-61701015D01*
X128878985Y-61582481D01*
X128785853Y-61443100D01*
X128721703Y-61288228D01*
X128689000Y-61123816D01*
X128689000Y-60956184D01*
X128721703Y-60791772D01*
X128785853Y-60636900D01*
X128878985Y-60497519D01*
X128997519Y-60378985D01*
X129136900Y-60285853D01*
X129291772Y-60221703D01*
X129456184Y-60189000D01*
X129623816Y-60189000D01*
X129788228Y-60221703D01*
G37*
G36*
X79046564Y-52329389D02*
G01*
X79237833Y-52408615D01*
X79237835Y-52408616D01*
X79409973Y-52523635D01*
X79556365Y-52670027D01*
X79671385Y-52842167D01*
X79750611Y-53033436D01*
X79791000Y-53236484D01*
X79791000Y-53443516D01*
X79750611Y-53646564D01*
X79671385Y-53837833D01*
X79671384Y-53837835D01*
X79556365Y-54009973D01*
X79409973Y-54156365D01*
X79237835Y-54271384D01*
X79237834Y-54271385D01*
X79237833Y-54271385D01*
X79046564Y-54350611D01*
X78843516Y-54391000D01*
X78636484Y-54391000D01*
X78433436Y-54350611D01*
X78242167Y-54271385D01*
X78242166Y-54271385D01*
X78242165Y-54271384D01*
X78070027Y-54156365D01*
X77923635Y-54009973D01*
X77808616Y-53837835D01*
X77808615Y-53837833D01*
X77729389Y-53646564D01*
X77689000Y-53443516D01*
X77689000Y-53236484D01*
X77729389Y-53033436D01*
X77808615Y-52842167D01*
X77923635Y-52670027D01*
X78070027Y-52523635D01*
X78242165Y-52408616D01*
X78242167Y-52408615D01*
X78433436Y-52329389D01*
X78636484Y-52289000D01*
X78843516Y-52289000D01*
X79046564Y-52329389D01*
G37*
G36*
X72546564Y-52329389D02*
G01*
X72737833Y-52408615D01*
X72737835Y-52408616D01*
X72909973Y-52523635D01*
X73056365Y-52670027D01*
X73171385Y-52842167D01*
X73250611Y-53033436D01*
X73291000Y-53236484D01*
X73291000Y-53443516D01*
X73250611Y-53646564D01*
X73171385Y-53837833D01*
X73171384Y-53837835D01*
X73056365Y-54009973D01*
X72909973Y-54156365D01*
X72737835Y-54271384D01*
X72737834Y-54271385D01*
X72737833Y-54271385D01*
X72546564Y-54350611D01*
X72343516Y-54391000D01*
X72136484Y-54391000D01*
X71933436Y-54350611D01*
X71742167Y-54271385D01*
X71742166Y-54271385D01*
X71742165Y-54271384D01*
X71570027Y-54156365D01*
X71423635Y-54009973D01*
X71308616Y-53837835D01*
X71308615Y-53837833D01*
X71229389Y-53646564D01*
X71189000Y-53443516D01*
X71189000Y-53236484D01*
X71229389Y-53033436D01*
X71308615Y-52842167D01*
X71423635Y-52670027D01*
X71570027Y-52523635D01*
X71742165Y-52408616D01*
X71742167Y-52408615D01*
X71933436Y-52329389D01*
X72136484Y-52289000D01*
X72343516Y-52289000D01*
X72546564Y-52329389D01*
G37*
G36*
X85246564Y-52329389D02*
G01*
X85437833Y-52408615D01*
X85437835Y-52408616D01*
X85609973Y-52523635D01*
X85756365Y-52670027D01*
X85871385Y-52842167D01*
X85950611Y-53033436D01*
X85991000Y-53236484D01*
X85991000Y-53443516D01*
X85950611Y-53646564D01*
X85871385Y-53837833D01*
X85871384Y-53837835D01*
X85756365Y-54009973D01*
X85609973Y-54156365D01*
X85437835Y-54271384D01*
X85437834Y-54271385D01*
X85437833Y-54271385D01*
X85246564Y-54350611D01*
X85043516Y-54391000D01*
X84836484Y-54391000D01*
X84633436Y-54350611D01*
X84442167Y-54271385D01*
X84442166Y-54271385D01*
X84442165Y-54271384D01*
X84270027Y-54156365D01*
X84123635Y-54009973D01*
X84008616Y-53837835D01*
X84008615Y-53837833D01*
X83929389Y-53646564D01*
X83889000Y-53443516D01*
X83889000Y-53236484D01*
X83929389Y-53033436D01*
X84008615Y-52842167D01*
X84123635Y-52670027D01*
X84270027Y-52523635D01*
X84442165Y-52408616D01*
X84442167Y-52408615D01*
X84633436Y-52329389D01*
X84836484Y-52289000D01*
X85043516Y-52289000D01*
X85246564Y-52329389D01*
G37*
G36*
X91746564Y-52329389D02*
G01*
X91937833Y-52408615D01*
X91937835Y-52408616D01*
X92109973Y-52523635D01*
X92256365Y-52670027D01*
X92371385Y-52842167D01*
X92450611Y-53033436D01*
X92491000Y-53236484D01*
X92491000Y-53443516D01*
X92450611Y-53646564D01*
X92371385Y-53837833D01*
X92371384Y-53837835D01*
X92256365Y-54009973D01*
X92109973Y-54156365D01*
X91937835Y-54271384D01*
X91937834Y-54271385D01*
X91937833Y-54271385D01*
X91746564Y-54350611D01*
X91543516Y-54391000D01*
X91336484Y-54391000D01*
X91133436Y-54350611D01*
X90942167Y-54271385D01*
X90942166Y-54271385D01*
X90942165Y-54271384D01*
X90770027Y-54156365D01*
X90623635Y-54009973D01*
X90508616Y-53837835D01*
X90508615Y-53837833D01*
X90429389Y-53646564D01*
X90389000Y-53443516D01*
X90389000Y-53236484D01*
X90429389Y-53033436D01*
X90508615Y-52842167D01*
X90623635Y-52670027D01*
X90770027Y-52523635D01*
X90942165Y-52408616D01*
X90942167Y-52408615D01*
X91133436Y-52329389D01*
X91336484Y-52289000D01*
X91543516Y-52289000D01*
X91746564Y-52329389D01*
G37*
G36*
X145086564Y-52329389D02*
G01*
X145277833Y-52408615D01*
X145277835Y-52408616D01*
X145449973Y-52523635D01*
X145596365Y-52670027D01*
X145711385Y-52842167D01*
X145790611Y-53033436D01*
X145831000Y-53236484D01*
X145831000Y-53443516D01*
X145790611Y-53646564D01*
X145711385Y-53837833D01*
X145711384Y-53837835D01*
X145596365Y-54009973D01*
X145449973Y-54156365D01*
X145277835Y-54271384D01*
X145277834Y-54271385D01*
X145277833Y-54271385D01*
X145086564Y-54350611D01*
X144883516Y-54391000D01*
X144676484Y-54391000D01*
X144473436Y-54350611D01*
X144282167Y-54271385D01*
X144282166Y-54271385D01*
X144282165Y-54271384D01*
X144110027Y-54156365D01*
X143963635Y-54009973D01*
X143848616Y-53837835D01*
X143848615Y-53837833D01*
X143769389Y-53646564D01*
X143729000Y-53443516D01*
X143729000Y-53236484D01*
X143769389Y-53033436D01*
X143848615Y-52842167D01*
X143963635Y-52670027D01*
X144110027Y-52523635D01*
X144282165Y-52408616D01*
X144282167Y-52408615D01*
X144473436Y-52329389D01*
X144676484Y-52289000D01*
X144883516Y-52289000D01*
X145086564Y-52329389D01*
G37*
G36*
X151286564Y-52329389D02*
G01*
X151477833Y-52408615D01*
X151477835Y-52408616D01*
X151649973Y-52523635D01*
X151796365Y-52670027D01*
X151911385Y-52842167D01*
X151990611Y-53033436D01*
X152031000Y-53236484D01*
X152031000Y-53443516D01*
X151990611Y-53646564D01*
X151911385Y-53837833D01*
X151911384Y-53837835D01*
X151796365Y-54009973D01*
X151649973Y-54156365D01*
X151477835Y-54271384D01*
X151477834Y-54271385D01*
X151477833Y-54271385D01*
X151286564Y-54350611D01*
X151083516Y-54391000D01*
X150876484Y-54391000D01*
X150673436Y-54350611D01*
X150482167Y-54271385D01*
X150482166Y-54271385D01*
X150482165Y-54271384D01*
X150310027Y-54156365D01*
X150163635Y-54009973D01*
X150048616Y-53837835D01*
X150048615Y-53837833D01*
X149969389Y-53646564D01*
X149929000Y-53443516D01*
X149929000Y-53236484D01*
X149969389Y-53033436D01*
X150048615Y-52842167D01*
X150163635Y-52670027D01*
X150310027Y-52523635D01*
X150482165Y-52408616D01*
X150482167Y-52408615D01*
X150673436Y-52329389D01*
X150876484Y-52289000D01*
X151083516Y-52289000D01*
X151286564Y-52329389D01*
G37*
G36*
X157786564Y-52329389D02*
G01*
X157977833Y-52408615D01*
X157977835Y-52408616D01*
X158149973Y-52523635D01*
X158296365Y-52670027D01*
X158411385Y-52842167D01*
X158490611Y-53033436D01*
X158531000Y-53236484D01*
X158531000Y-53443516D01*
X158490611Y-53646564D01*
X158411385Y-53837833D01*
X158411384Y-53837835D01*
X158296365Y-54009973D01*
X158149973Y-54156365D01*
X157977835Y-54271384D01*
X157977834Y-54271385D01*
X157977833Y-54271385D01*
X157786564Y-54350611D01*
X157583516Y-54391000D01*
X157376484Y-54391000D01*
X157173436Y-54350611D01*
X156982167Y-54271385D01*
X156982166Y-54271385D01*
X156982165Y-54271384D01*
X156810027Y-54156365D01*
X156663635Y-54009973D01*
X156548616Y-53837835D01*
X156548615Y-53837833D01*
X156469389Y-53646564D01*
X156429000Y-53443516D01*
X156429000Y-53236484D01*
X156469389Y-53033436D01*
X156548615Y-52842167D01*
X156663635Y-52670027D01*
X156810027Y-52523635D01*
X156982165Y-52408616D01*
X156982167Y-52408615D01*
X157173436Y-52329389D01*
X157376484Y-52289000D01*
X157583516Y-52289000D01*
X157786564Y-52329389D01*
G37*
G36*
X138586564Y-52329389D02*
G01*
X138777833Y-52408615D01*
X138777835Y-52408616D01*
X138949973Y-52523635D01*
X139096365Y-52670027D01*
X139211385Y-52842167D01*
X139290611Y-53033436D01*
X139331000Y-53236484D01*
X139331000Y-53443516D01*
X139290611Y-53646564D01*
X139211385Y-53837833D01*
X139211384Y-53837835D01*
X139096365Y-54009973D01*
X138949973Y-54156365D01*
X138777835Y-54271384D01*
X138777834Y-54271385D01*
X138777833Y-54271385D01*
X138586564Y-54350611D01*
X138383516Y-54391000D01*
X138176484Y-54391000D01*
X137973436Y-54350611D01*
X137782167Y-54271385D01*
X137782166Y-54271385D01*
X137782165Y-54271384D01*
X137610027Y-54156365D01*
X137463635Y-54009973D01*
X137348616Y-53837835D01*
X137348615Y-53837833D01*
X137269389Y-53646564D01*
X137229000Y-53443516D01*
X137229000Y-53236484D01*
X137269389Y-53033436D01*
X137348615Y-52842167D01*
X137463635Y-52670027D01*
X137610027Y-52523635D01*
X137782165Y-52408616D01*
X137782167Y-52408615D01*
X137973436Y-52329389D01*
X138176484Y-52289000D01*
X138383516Y-52289000D01*
X138586564Y-52329389D01*
G37*
G36*
X151286564Y-47829389D02*
G01*
X151477833Y-47908615D01*
X151477835Y-47908616D01*
X151649973Y-48023635D01*
X151796365Y-48170027D01*
X151911385Y-48342167D01*
X151990611Y-48533436D01*
X152031000Y-48736484D01*
X152031000Y-48943516D01*
X151990611Y-49146564D01*
X151911385Y-49337833D01*
X151911384Y-49337835D01*
X151796365Y-49509973D01*
X151649973Y-49656365D01*
X151477835Y-49771384D01*
X151477834Y-49771385D01*
X151477833Y-49771385D01*
X151286564Y-49850611D01*
X151083516Y-49891000D01*
X150876484Y-49891000D01*
X150673436Y-49850611D01*
X150482167Y-49771385D01*
X150482166Y-49771385D01*
X150482165Y-49771384D01*
X150310027Y-49656365D01*
X150163635Y-49509973D01*
X150048616Y-49337835D01*
X150048615Y-49337833D01*
X149969389Y-49146564D01*
X149929000Y-48943516D01*
X149929000Y-48736484D01*
X149969389Y-48533436D01*
X150048615Y-48342167D01*
X150163635Y-48170027D01*
X150310027Y-48023635D01*
X150482165Y-47908616D01*
X150482167Y-47908615D01*
X150673436Y-47829389D01*
X150876484Y-47789000D01*
X151083516Y-47789000D01*
X151286564Y-47829389D01*
G37*
G36*
X138586564Y-47829389D02*
G01*
X138777833Y-47908615D01*
X138777835Y-47908616D01*
X138949973Y-48023635D01*
X139096365Y-48170027D01*
X139211385Y-48342167D01*
X139290611Y-48533436D01*
X139331000Y-48736484D01*
X139331000Y-48943516D01*
X139290611Y-49146564D01*
X139211385Y-49337833D01*
X139211384Y-49337835D01*
X139096365Y-49509973D01*
X138949973Y-49656365D01*
X138777835Y-49771384D01*
X138777834Y-49771385D01*
X138777833Y-49771385D01*
X138586564Y-49850611D01*
X138383516Y-49891000D01*
X138176484Y-49891000D01*
X137973436Y-49850611D01*
X137782167Y-49771385D01*
X137782166Y-49771385D01*
X137782165Y-49771384D01*
X137610027Y-49656365D01*
X137463635Y-49509973D01*
X137348616Y-49337835D01*
X137348615Y-49337833D01*
X137269389Y-49146564D01*
X137229000Y-48943516D01*
X137229000Y-48736484D01*
X137269389Y-48533436D01*
X137348615Y-48342167D01*
X137463635Y-48170027D01*
X137610027Y-48023635D01*
X137782165Y-47908616D01*
X137782167Y-47908615D01*
X137973436Y-47829389D01*
X138176484Y-47789000D01*
X138383516Y-47789000D01*
X138586564Y-47829389D01*
G37*
G36*
X145086564Y-47829389D02*
G01*
X145277833Y-47908615D01*
X145277835Y-47908616D01*
X145449973Y-48023635D01*
X145596365Y-48170027D01*
X145711385Y-48342167D01*
X145790611Y-48533436D01*
X145831000Y-48736484D01*
X145831000Y-48943516D01*
X145790611Y-49146564D01*
X145711385Y-49337833D01*
X145711384Y-49337835D01*
X145596365Y-49509973D01*
X145449973Y-49656365D01*
X145277835Y-49771384D01*
X145277834Y-49771385D01*
X145277833Y-49771385D01*
X145086564Y-49850611D01*
X144883516Y-49891000D01*
X144676484Y-49891000D01*
X144473436Y-49850611D01*
X144282167Y-49771385D01*
X144282166Y-49771385D01*
X144282165Y-49771384D01*
X144110027Y-49656365D01*
X143963635Y-49509973D01*
X143848616Y-49337835D01*
X143848615Y-49337833D01*
X143769389Y-49146564D01*
X143729000Y-48943516D01*
X143729000Y-48736484D01*
X143769389Y-48533436D01*
X143848615Y-48342167D01*
X143963635Y-48170027D01*
X144110027Y-48023635D01*
X144282165Y-47908616D01*
X144282167Y-47908615D01*
X144473436Y-47829389D01*
X144676484Y-47789000D01*
X144883516Y-47789000D01*
X145086564Y-47829389D01*
G37*
G36*
X91746564Y-47829389D02*
G01*
X91937833Y-47908615D01*
X91937835Y-47908616D01*
X92109973Y-48023635D01*
X92256365Y-48170027D01*
X92371385Y-48342167D01*
X92450611Y-48533436D01*
X92491000Y-48736484D01*
X92491000Y-48943516D01*
X92450611Y-49146564D01*
X92371385Y-49337833D01*
X92371384Y-49337835D01*
X92256365Y-49509973D01*
X92109973Y-49656365D01*
X91937835Y-49771384D01*
X91937834Y-49771385D01*
X91937833Y-49771385D01*
X91746564Y-49850611D01*
X91543516Y-49891000D01*
X91336484Y-49891000D01*
X91133436Y-49850611D01*
X90942167Y-49771385D01*
X90942166Y-49771385D01*
X90942165Y-49771384D01*
X90770027Y-49656365D01*
X90623635Y-49509973D01*
X90508616Y-49337835D01*
X90508615Y-49337833D01*
X90429389Y-49146564D01*
X90389000Y-48943516D01*
X90389000Y-48736484D01*
X90429389Y-48533436D01*
X90508615Y-48342167D01*
X90623635Y-48170027D01*
X90770027Y-48023635D01*
X90942165Y-47908616D01*
X90942167Y-47908615D01*
X91133436Y-47829389D01*
X91336484Y-47789000D01*
X91543516Y-47789000D01*
X91746564Y-47829389D01*
G37*
G36*
X72546564Y-47829389D02*
G01*
X72737833Y-47908615D01*
X72737835Y-47908616D01*
X72909973Y-48023635D01*
X73056365Y-48170027D01*
X73171385Y-48342167D01*
X73250611Y-48533436D01*
X73291000Y-48736484D01*
X73291000Y-48943516D01*
X73250611Y-49146564D01*
X73171385Y-49337833D01*
X73171384Y-49337835D01*
X73056365Y-49509973D01*
X72909973Y-49656365D01*
X72737835Y-49771384D01*
X72737834Y-49771385D01*
X72737833Y-49771385D01*
X72546564Y-49850611D01*
X72343516Y-49891000D01*
X72136484Y-49891000D01*
X71933436Y-49850611D01*
X71742167Y-49771385D01*
X71742166Y-49771385D01*
X71742165Y-49771384D01*
X71570027Y-49656365D01*
X71423635Y-49509973D01*
X71308616Y-49337835D01*
X71308615Y-49337833D01*
X71229389Y-49146564D01*
X71189000Y-48943516D01*
X71189000Y-48736484D01*
X71229389Y-48533436D01*
X71308615Y-48342167D01*
X71423635Y-48170027D01*
X71570027Y-48023635D01*
X71742165Y-47908616D01*
X71742167Y-47908615D01*
X71933436Y-47829389D01*
X72136484Y-47789000D01*
X72343516Y-47789000D01*
X72546564Y-47829389D01*
G37*
G36*
X79046564Y-47829389D02*
G01*
X79237833Y-47908615D01*
X79237835Y-47908616D01*
X79409973Y-48023635D01*
X79556365Y-48170027D01*
X79671385Y-48342167D01*
X79750611Y-48533436D01*
X79791000Y-48736484D01*
X79791000Y-48943516D01*
X79750611Y-49146564D01*
X79671385Y-49337833D01*
X79671384Y-49337835D01*
X79556365Y-49509973D01*
X79409973Y-49656365D01*
X79237835Y-49771384D01*
X79237834Y-49771385D01*
X79237833Y-49771385D01*
X79046564Y-49850611D01*
X78843516Y-49891000D01*
X78636484Y-49891000D01*
X78433436Y-49850611D01*
X78242167Y-49771385D01*
X78242166Y-49771385D01*
X78242165Y-49771384D01*
X78070027Y-49656365D01*
X77923635Y-49509973D01*
X77808616Y-49337835D01*
X77808615Y-49337833D01*
X77729389Y-49146564D01*
X77689000Y-48943516D01*
X77689000Y-48736484D01*
X77729389Y-48533436D01*
X77808615Y-48342167D01*
X77923635Y-48170027D01*
X78070027Y-48023635D01*
X78242165Y-47908616D01*
X78242167Y-47908615D01*
X78433436Y-47829389D01*
X78636484Y-47789000D01*
X78843516Y-47789000D01*
X79046564Y-47829389D01*
G37*
G36*
X157786564Y-47829389D02*
G01*
X157977833Y-47908615D01*
X157977835Y-47908616D01*
X158149973Y-48023635D01*
X158296365Y-48170027D01*
X158411385Y-48342167D01*
X158490611Y-48533436D01*
X158531000Y-48736484D01*
X158531000Y-48943516D01*
X158490611Y-49146564D01*
X158411385Y-49337833D01*
X158411384Y-49337835D01*
X158296365Y-49509973D01*
X158149973Y-49656365D01*
X157977835Y-49771384D01*
X157977834Y-49771385D01*
X157977833Y-49771385D01*
X157786564Y-49850611D01*
X157583516Y-49891000D01*
X157376484Y-49891000D01*
X157173436Y-49850611D01*
X156982167Y-49771385D01*
X156982166Y-49771385D01*
X156982165Y-49771384D01*
X156810027Y-49656365D01*
X156663635Y-49509973D01*
X156548616Y-49337835D01*
X156548615Y-49337833D01*
X156469389Y-49146564D01*
X156429000Y-48943516D01*
X156429000Y-48736484D01*
X156469389Y-48533436D01*
X156548615Y-48342167D01*
X156663635Y-48170027D01*
X156810027Y-48023635D01*
X156982165Y-47908616D01*
X156982167Y-47908615D01*
X157173436Y-47829389D01*
X157376484Y-47789000D01*
X157583516Y-47789000D01*
X157786564Y-47829389D01*
G37*
G36*
X85246564Y-47829389D02*
G01*
X85437833Y-47908615D01*
X85437835Y-47908616D01*
X85609973Y-48023635D01*
X85756365Y-48170027D01*
X85871385Y-48342167D01*
X85950611Y-48533436D01*
X85991000Y-48736484D01*
X85991000Y-48943516D01*
X85950611Y-49146564D01*
X85871385Y-49337833D01*
X85871384Y-49337835D01*
X85756365Y-49509973D01*
X85609973Y-49656365D01*
X85437835Y-49771384D01*
X85437834Y-49771385D01*
X85437833Y-49771385D01*
X85246564Y-49850611D01*
X85043516Y-49891000D01*
X84836484Y-49891000D01*
X84633436Y-49850611D01*
X84442167Y-49771385D01*
X84442166Y-49771385D01*
X84442165Y-49771384D01*
X84270027Y-49656365D01*
X84123635Y-49509973D01*
X84008616Y-49337835D01*
X84008615Y-49337833D01*
X83929389Y-49146564D01*
X83889000Y-48943516D01*
X83889000Y-48736484D01*
X83929389Y-48533436D01*
X84008615Y-48342167D01*
X84123635Y-48170027D01*
X84270027Y-48023635D01*
X84442165Y-47908616D01*
X84442167Y-47908615D01*
X84633436Y-47829389D01*
X84836484Y-47789000D01*
X85043516Y-47789000D01*
X85246564Y-47829389D01*
G37*
G36*
X149996601Y-37514397D02*
G01*
X150035305Y-37522096D01*
X150067340Y-37535365D01*
X150144680Y-37567400D01*
X150243115Y-37633173D01*
X150326827Y-37716885D01*
X150392600Y-37815320D01*
X150437904Y-37924696D01*
X150461000Y-38040805D01*
X150461000Y-38159195D01*
X150437904Y-38275304D01*
X150392600Y-38384680D01*
X150326827Y-38483115D01*
X150243115Y-38566827D01*
X150144680Y-38632600D01*
X150067340Y-38664635D01*
X150035305Y-38677904D01*
X149996601Y-38685603D01*
X149919195Y-38701000D01*
X149800805Y-38701000D01*
X149723399Y-38685603D01*
X149684695Y-38677904D01*
X149652660Y-38664635D01*
X149575320Y-38632600D01*
X149476885Y-38566827D01*
X149393173Y-38483115D01*
X149327400Y-38384680D01*
X149282096Y-38275304D01*
X149259000Y-38159195D01*
X149259000Y-38040805D01*
X149282096Y-37924696D01*
X149327400Y-37815320D01*
X149393173Y-37716885D01*
X149476885Y-37633173D01*
X149575320Y-37567400D01*
X149652660Y-37535365D01*
X149684695Y-37522096D01*
X149723399Y-37514397D01*
X149800805Y-37499000D01*
X149919195Y-37499000D01*
X149996601Y-37514397D01*
G37*
G36*
X97121000Y-38701000D02*
G01*
X95919000Y-38701000D01*
X95919000Y-37499000D01*
X97121000Y-37499000D01*
X97121000Y-38701000D01*
G37*
G36*
X81416601Y-37514397D02*
G01*
X81455305Y-37522096D01*
X81487340Y-37535365D01*
X81564680Y-37567400D01*
X81663115Y-37633173D01*
X81746827Y-37716885D01*
X81812600Y-37815320D01*
X81857904Y-37924696D01*
X81881000Y-38040805D01*
X81881000Y-38159195D01*
X81857904Y-38275304D01*
X81812600Y-38384680D01*
X81746827Y-38483115D01*
X81663115Y-38566827D01*
X81564680Y-38632600D01*
X81487340Y-38664635D01*
X81455305Y-38677904D01*
X81416601Y-38685603D01*
X81339195Y-38701000D01*
X81220805Y-38701000D01*
X81143399Y-38685603D01*
X81104695Y-38677904D01*
X81072660Y-38664635D01*
X80995320Y-38632600D01*
X80896885Y-38566827D01*
X80813173Y-38483115D01*
X80747400Y-38384680D01*
X80702096Y-38275304D01*
X80679000Y-38159195D01*
X80679000Y-38040805D01*
X80702096Y-37924696D01*
X80747400Y-37815320D01*
X80813173Y-37716885D01*
X80896885Y-37633173D01*
X80995320Y-37567400D01*
X81072660Y-37535365D01*
X81104695Y-37522096D01*
X81143399Y-37514397D01*
X81220805Y-37499000D01*
X81339195Y-37499000D01*
X81416601Y-37514397D01*
G37*
G36*
X71721000Y-38701000D02*
G01*
X70519000Y-38701000D01*
X70519000Y-37499000D01*
X71721000Y-37499000D01*
X71721000Y-38701000D01*
G37*
G36*
X73796601Y-37514397D02*
G01*
X73835305Y-37522096D01*
X73867340Y-37535365D01*
X73944680Y-37567400D01*
X74043115Y-37633173D01*
X74126827Y-37716885D01*
X74192600Y-37815320D01*
X74237904Y-37924696D01*
X74261000Y-38040805D01*
X74261000Y-38159195D01*
X74237904Y-38275304D01*
X74192600Y-38384680D01*
X74126827Y-38483115D01*
X74043115Y-38566827D01*
X73944680Y-38632600D01*
X73867340Y-38664635D01*
X73835305Y-38677904D01*
X73796601Y-38685603D01*
X73719195Y-38701000D01*
X73600805Y-38701000D01*
X73523399Y-38685603D01*
X73484695Y-38677904D01*
X73452660Y-38664635D01*
X73375320Y-38632600D01*
X73276885Y-38566827D01*
X73193173Y-38483115D01*
X73127400Y-38384680D01*
X73082096Y-38275304D01*
X73059000Y-38159195D01*
X73059000Y-38040805D01*
X73082096Y-37924696D01*
X73127400Y-37815320D01*
X73193173Y-37716885D01*
X73276885Y-37633173D01*
X73375320Y-37567400D01*
X73452660Y-37535365D01*
X73484695Y-37522096D01*
X73523399Y-37514397D01*
X73600805Y-37499000D01*
X73719195Y-37499000D01*
X73796601Y-37514397D01*
G37*
G36*
X76336601Y-37514397D02*
G01*
X76375305Y-37522096D01*
X76407340Y-37535365D01*
X76484680Y-37567400D01*
X76583115Y-37633173D01*
X76666827Y-37716885D01*
X76732600Y-37815320D01*
X76777904Y-37924696D01*
X76801000Y-38040805D01*
X76801000Y-38159195D01*
X76777904Y-38275304D01*
X76732600Y-38384680D01*
X76666827Y-38483115D01*
X76583115Y-38566827D01*
X76484680Y-38632600D01*
X76407340Y-38664635D01*
X76375305Y-38677904D01*
X76336601Y-38685603D01*
X76259195Y-38701000D01*
X76140805Y-38701000D01*
X76063399Y-38685603D01*
X76024695Y-38677904D01*
X75992660Y-38664635D01*
X75915320Y-38632600D01*
X75816885Y-38566827D01*
X75733173Y-38483115D01*
X75667400Y-38384680D01*
X75622096Y-38275304D01*
X75599000Y-38159195D01*
X75599000Y-38040805D01*
X75622096Y-37924696D01*
X75667400Y-37815320D01*
X75733173Y-37716885D01*
X75816885Y-37633173D01*
X75915320Y-37567400D01*
X75992660Y-37535365D01*
X76024695Y-37522096D01*
X76063399Y-37514397D01*
X76140805Y-37499000D01*
X76259195Y-37499000D01*
X76336601Y-37514397D01*
G37*
G36*
X78876601Y-37514397D02*
G01*
X78915305Y-37522096D01*
X78947340Y-37535365D01*
X79024680Y-37567400D01*
X79123115Y-37633173D01*
X79206827Y-37716885D01*
X79272600Y-37815320D01*
X79317904Y-37924696D01*
X79341000Y-38040805D01*
X79341000Y-38159195D01*
X79317904Y-38275304D01*
X79272600Y-38384680D01*
X79206827Y-38483115D01*
X79123115Y-38566827D01*
X79024680Y-38632600D01*
X78947340Y-38664635D01*
X78915305Y-38677904D01*
X78876601Y-38685603D01*
X78799195Y-38701000D01*
X78680805Y-38701000D01*
X78603399Y-38685603D01*
X78564695Y-38677904D01*
X78532660Y-38664635D01*
X78455320Y-38632600D01*
X78356885Y-38566827D01*
X78273173Y-38483115D01*
X78207400Y-38384680D01*
X78162096Y-38275304D01*
X78139000Y-38159195D01*
X78139000Y-38040805D01*
X78162096Y-37924696D01*
X78207400Y-37815320D01*
X78273173Y-37716885D01*
X78356885Y-37633173D01*
X78455320Y-37567400D01*
X78532660Y-37535365D01*
X78564695Y-37522096D01*
X78603399Y-37514397D01*
X78680805Y-37499000D01*
X78799195Y-37499000D01*
X78876601Y-37514397D01*
G37*
G36*
X99196601Y-37514397D02*
G01*
X99235305Y-37522096D01*
X99267340Y-37535365D01*
X99344680Y-37567400D01*
X99443115Y-37633173D01*
X99526827Y-37716885D01*
X99592600Y-37815320D01*
X99637904Y-37924696D01*
X99661000Y-38040805D01*
X99661000Y-38159195D01*
X99637904Y-38275304D01*
X99592600Y-38384680D01*
X99526827Y-38483115D01*
X99443115Y-38566827D01*
X99344680Y-38632600D01*
X99267340Y-38664635D01*
X99235305Y-38677904D01*
X99196601Y-38685603D01*
X99119195Y-38701000D01*
X99000805Y-38701000D01*
X98923399Y-38685603D01*
X98884695Y-38677904D01*
X98852660Y-38664635D01*
X98775320Y-38632600D01*
X98676885Y-38566827D01*
X98593173Y-38483115D01*
X98527400Y-38384680D01*
X98482096Y-38275304D01*
X98459000Y-38159195D01*
X98459000Y-38040805D01*
X98482096Y-37924696D01*
X98527400Y-37815320D01*
X98593173Y-37716885D01*
X98676885Y-37633173D01*
X98775320Y-37567400D01*
X98852660Y-37535365D01*
X98884695Y-37522096D01*
X98923399Y-37514397D01*
X99000805Y-37499000D01*
X99119195Y-37499000D01*
X99196601Y-37514397D01*
G37*
G36*
X157616601Y-37514397D02*
G01*
X157655305Y-37522096D01*
X157687340Y-37535365D01*
X157764680Y-37567400D01*
X157863115Y-37633173D01*
X157946827Y-37716885D01*
X158012600Y-37815320D01*
X158057904Y-37924696D01*
X158081000Y-38040805D01*
X158081000Y-38159195D01*
X158057904Y-38275304D01*
X158012600Y-38384680D01*
X157946827Y-38483115D01*
X157863115Y-38566827D01*
X157764680Y-38632600D01*
X157687340Y-38664635D01*
X157655305Y-38677904D01*
X157616601Y-38685603D01*
X157539195Y-38701000D01*
X157420805Y-38701000D01*
X157343399Y-38685603D01*
X157304695Y-38677904D01*
X157272660Y-38664635D01*
X157195320Y-38632600D01*
X157096885Y-38566827D01*
X157013173Y-38483115D01*
X156947400Y-38384680D01*
X156902096Y-38275304D01*
X156879000Y-38159195D01*
X156879000Y-38040805D01*
X156902096Y-37924696D01*
X156947400Y-37815320D01*
X157013173Y-37716885D01*
X157096885Y-37633173D01*
X157195320Y-37567400D01*
X157272660Y-37535365D01*
X157304695Y-37522096D01*
X157343399Y-37514397D01*
X157420805Y-37499000D01*
X157539195Y-37499000D01*
X157616601Y-37514397D01*
G37*
G36*
X101736601Y-37514397D02*
G01*
X101775305Y-37522096D01*
X101807340Y-37535365D01*
X101884680Y-37567400D01*
X101983115Y-37633173D01*
X102066827Y-37716885D01*
X102132600Y-37815320D01*
X102177904Y-37924696D01*
X102201000Y-38040805D01*
X102201000Y-38159195D01*
X102177904Y-38275304D01*
X102132600Y-38384680D01*
X102066827Y-38483115D01*
X101983115Y-38566827D01*
X101884680Y-38632600D01*
X101807340Y-38664635D01*
X101775305Y-38677904D01*
X101736601Y-38685603D01*
X101659195Y-38701000D01*
X101540805Y-38701000D01*
X101463399Y-38685603D01*
X101424695Y-38677904D01*
X101392660Y-38664635D01*
X101315320Y-38632600D01*
X101216885Y-38566827D01*
X101133173Y-38483115D01*
X101067400Y-38384680D01*
X101022096Y-38275304D01*
X100999000Y-38159195D01*
X100999000Y-38040805D01*
X101022096Y-37924696D01*
X101067400Y-37815320D01*
X101133173Y-37716885D01*
X101216885Y-37633173D01*
X101315320Y-37567400D01*
X101392660Y-37535365D01*
X101424695Y-37522096D01*
X101463399Y-37514397D01*
X101540805Y-37499000D01*
X101659195Y-37499000D01*
X101736601Y-37514397D01*
G37*
G36*
X122521000Y-38701000D02*
G01*
X121319000Y-38701000D01*
X121319000Y-37499000D01*
X122521000Y-37499000D01*
X122521000Y-38701000D01*
G37*
G36*
X124596601Y-37514397D02*
G01*
X124635305Y-37522096D01*
X124667340Y-37535365D01*
X124744680Y-37567400D01*
X124843115Y-37633173D01*
X124926827Y-37716885D01*
X124992600Y-37815320D01*
X125037904Y-37924696D01*
X125061000Y-38040805D01*
X125061000Y-38159195D01*
X125037904Y-38275304D01*
X124992600Y-38384680D01*
X124926827Y-38483115D01*
X124843115Y-38566827D01*
X124744680Y-38632600D01*
X124667340Y-38664635D01*
X124635305Y-38677904D01*
X124596601Y-38685603D01*
X124519195Y-38701000D01*
X124400805Y-38701000D01*
X124323399Y-38685603D01*
X124284695Y-38677904D01*
X124252660Y-38664635D01*
X124175320Y-38632600D01*
X124076885Y-38566827D01*
X123993173Y-38483115D01*
X123927400Y-38384680D01*
X123882096Y-38275304D01*
X123859000Y-38159195D01*
X123859000Y-38040805D01*
X123882096Y-37924696D01*
X123927400Y-37815320D01*
X123993173Y-37716885D01*
X124076885Y-37633173D01*
X124175320Y-37567400D01*
X124252660Y-37535365D01*
X124284695Y-37522096D01*
X124323399Y-37514397D01*
X124400805Y-37499000D01*
X124519195Y-37499000D01*
X124596601Y-37514397D01*
G37*
G36*
X127136601Y-37514397D02*
G01*
X127175305Y-37522096D01*
X127207340Y-37535365D01*
X127284680Y-37567400D01*
X127383115Y-37633173D01*
X127466827Y-37716885D01*
X127532600Y-37815320D01*
X127577904Y-37924696D01*
X127601000Y-38040805D01*
X127601000Y-38159195D01*
X127577904Y-38275304D01*
X127532600Y-38384680D01*
X127466827Y-38483115D01*
X127383115Y-38566827D01*
X127284680Y-38632600D01*
X127207340Y-38664635D01*
X127175305Y-38677904D01*
X127136601Y-38685603D01*
X127059195Y-38701000D01*
X126940805Y-38701000D01*
X126863399Y-38685603D01*
X126824695Y-38677904D01*
X126792660Y-38664635D01*
X126715320Y-38632600D01*
X126616885Y-38566827D01*
X126533173Y-38483115D01*
X126467400Y-38384680D01*
X126422096Y-38275304D01*
X126399000Y-38159195D01*
X126399000Y-38040805D01*
X126422096Y-37924696D01*
X126467400Y-37815320D01*
X126533173Y-37716885D01*
X126616885Y-37633173D01*
X126715320Y-37567400D01*
X126792660Y-37535365D01*
X126824695Y-37522096D01*
X126863399Y-37514397D01*
X126940805Y-37499000D01*
X127059195Y-37499000D01*
X127136601Y-37514397D01*
G37*
G36*
X129676601Y-37514397D02*
G01*
X129715305Y-37522096D01*
X129747340Y-37535365D01*
X129824680Y-37567400D01*
X129923115Y-37633173D01*
X130006827Y-37716885D01*
X130072600Y-37815320D01*
X130117904Y-37924696D01*
X130141000Y-38040805D01*
X130141000Y-38159195D01*
X130117904Y-38275304D01*
X130072600Y-38384680D01*
X130006827Y-38483115D01*
X129923115Y-38566827D01*
X129824680Y-38632600D01*
X129747340Y-38664635D01*
X129715305Y-38677904D01*
X129676601Y-38685603D01*
X129599195Y-38701000D01*
X129480805Y-38701000D01*
X129403399Y-38685603D01*
X129364695Y-38677904D01*
X129332660Y-38664635D01*
X129255320Y-38632600D01*
X129156885Y-38566827D01*
X129073173Y-38483115D01*
X129007400Y-38384680D01*
X128962096Y-38275304D01*
X128939000Y-38159195D01*
X128939000Y-38040805D01*
X128962096Y-37924696D01*
X129007400Y-37815320D01*
X129073173Y-37716885D01*
X129156885Y-37633173D01*
X129255320Y-37567400D01*
X129332660Y-37535365D01*
X129364695Y-37522096D01*
X129403399Y-37514397D01*
X129480805Y-37499000D01*
X129599195Y-37499000D01*
X129676601Y-37514397D01*
G37*
G36*
X132216601Y-37514397D02*
G01*
X132255305Y-37522096D01*
X132287340Y-37535365D01*
X132364680Y-37567400D01*
X132463115Y-37633173D01*
X132546827Y-37716885D01*
X132612600Y-37815320D01*
X132657904Y-37924696D01*
X132681000Y-38040805D01*
X132681000Y-38159195D01*
X132657904Y-38275304D01*
X132612600Y-38384680D01*
X132546827Y-38483115D01*
X132463115Y-38566827D01*
X132364680Y-38632600D01*
X132287340Y-38664635D01*
X132255305Y-38677904D01*
X132216601Y-38685603D01*
X132139195Y-38701000D01*
X132020805Y-38701000D01*
X131943399Y-38685603D01*
X131904695Y-38677904D01*
X131872660Y-38664635D01*
X131795320Y-38632600D01*
X131696885Y-38566827D01*
X131613173Y-38483115D01*
X131547400Y-38384680D01*
X131502096Y-38275304D01*
X131479000Y-38159195D01*
X131479000Y-38040805D01*
X131502096Y-37924696D01*
X131547400Y-37815320D01*
X131613173Y-37716885D01*
X131696885Y-37633173D01*
X131795320Y-37567400D01*
X131872660Y-37535365D01*
X131904695Y-37522096D01*
X131943399Y-37514397D01*
X132020805Y-37499000D01*
X132139195Y-37499000D01*
X132216601Y-37514397D01*
G37*
G36*
X147921000Y-38701000D02*
G01*
X146719000Y-38701000D01*
X146719000Y-37499000D01*
X147921000Y-37499000D01*
X147921000Y-38701000D01*
G37*
G36*
X104276601Y-37514397D02*
G01*
X104315305Y-37522096D01*
X104347340Y-37535365D01*
X104424680Y-37567400D01*
X104523115Y-37633173D01*
X104606827Y-37716885D01*
X104672600Y-37815320D01*
X104717904Y-37924696D01*
X104741000Y-38040805D01*
X104741000Y-38159195D01*
X104717904Y-38275304D01*
X104672600Y-38384680D01*
X104606827Y-38483115D01*
X104523115Y-38566827D01*
X104424680Y-38632600D01*
X104347340Y-38664635D01*
X104315305Y-38677904D01*
X104276601Y-38685603D01*
X104199195Y-38701000D01*
X104080805Y-38701000D01*
X104003399Y-38685603D01*
X103964695Y-38677904D01*
X103932660Y-38664635D01*
X103855320Y-38632600D01*
X103756885Y-38566827D01*
X103673173Y-38483115D01*
X103607400Y-38384680D01*
X103562096Y-38275304D01*
X103539000Y-38159195D01*
X103539000Y-38040805D01*
X103562096Y-37924696D01*
X103607400Y-37815320D01*
X103673173Y-37716885D01*
X103756885Y-37633173D01*
X103855320Y-37567400D01*
X103932660Y-37535365D01*
X103964695Y-37522096D01*
X104003399Y-37514397D01*
X104080805Y-37499000D01*
X104199195Y-37499000D01*
X104276601Y-37514397D01*
G37*
G36*
X152536601Y-37514397D02*
G01*
X152575305Y-37522096D01*
X152607340Y-37535365D01*
X152684680Y-37567400D01*
X152783115Y-37633173D01*
X152866827Y-37716885D01*
X152932600Y-37815320D01*
X152977904Y-37924696D01*
X153001000Y-38040805D01*
X153001000Y-38159195D01*
X152977904Y-38275304D01*
X152932600Y-38384680D01*
X152866827Y-38483115D01*
X152783115Y-38566827D01*
X152684680Y-38632600D01*
X152607340Y-38664635D01*
X152575305Y-38677904D01*
X152536601Y-38685603D01*
X152459195Y-38701000D01*
X152340805Y-38701000D01*
X152263399Y-38685603D01*
X152224695Y-38677904D01*
X152192660Y-38664635D01*
X152115320Y-38632600D01*
X152016885Y-38566827D01*
X151933173Y-38483115D01*
X151867400Y-38384680D01*
X151822096Y-38275304D01*
X151799000Y-38159195D01*
X151799000Y-38040805D01*
X151822096Y-37924696D01*
X151867400Y-37815320D01*
X151933173Y-37716885D01*
X152016885Y-37633173D01*
X152115320Y-37567400D01*
X152192660Y-37535365D01*
X152224695Y-37522096D01*
X152263399Y-37514397D01*
X152340805Y-37499000D01*
X152459195Y-37499000D01*
X152536601Y-37514397D01*
G37*
G36*
X155076601Y-37514397D02*
G01*
X155115305Y-37522096D01*
X155147340Y-37535365D01*
X155224680Y-37567400D01*
X155323115Y-37633173D01*
X155406827Y-37716885D01*
X155472600Y-37815320D01*
X155517904Y-37924696D01*
X155541000Y-38040805D01*
X155541000Y-38159195D01*
X155517904Y-38275304D01*
X155472600Y-38384680D01*
X155406827Y-38483115D01*
X155323115Y-38566827D01*
X155224680Y-38632600D01*
X155147340Y-38664635D01*
X155115305Y-38677904D01*
X155076601Y-38685603D01*
X154999195Y-38701000D01*
X154880805Y-38701000D01*
X154803399Y-38685603D01*
X154764695Y-38677904D01*
X154732660Y-38664635D01*
X154655320Y-38632600D01*
X154556885Y-38566827D01*
X154473173Y-38483115D01*
X154407400Y-38384680D01*
X154362096Y-38275304D01*
X154339000Y-38159195D01*
X154339000Y-38040805D01*
X154362096Y-37924696D01*
X154407400Y-37815320D01*
X154473173Y-37716885D01*
X154556885Y-37633173D01*
X154655320Y-37567400D01*
X154732660Y-37535365D01*
X154764695Y-37522096D01*
X154803399Y-37514397D01*
X154880805Y-37499000D01*
X154999195Y-37499000D01*
X155076601Y-37514397D01*
G37*
G36*
X106816601Y-37514397D02*
G01*
X106855305Y-37522096D01*
X106887340Y-37535365D01*
X106964680Y-37567400D01*
X107063115Y-37633173D01*
X107146827Y-37716885D01*
X107212600Y-37815320D01*
X107257904Y-37924696D01*
X107281000Y-38040805D01*
X107281000Y-38159195D01*
X107257904Y-38275304D01*
X107212600Y-38384680D01*
X107146827Y-38483115D01*
X107063115Y-38566827D01*
X106964680Y-38632600D01*
X106887340Y-38664635D01*
X106855305Y-38677904D01*
X106816601Y-38685603D01*
X106739195Y-38701000D01*
X106620805Y-38701000D01*
X106543399Y-38685603D01*
X106504695Y-38677904D01*
X106472660Y-38664635D01*
X106395320Y-38632600D01*
X106296885Y-38566827D01*
X106213173Y-38483115D01*
X106147400Y-38384680D01*
X106102096Y-38275304D01*
X106079000Y-38159195D01*
X106079000Y-38040805D01*
X106102096Y-37924696D01*
X106147400Y-37815320D01*
X106213173Y-37716885D01*
X106296885Y-37633173D01*
X106395320Y-37567400D01*
X106472660Y-37535365D01*
X106504695Y-37522096D01*
X106543399Y-37514397D01*
X106620805Y-37499000D01*
X106739195Y-37499000D01*
X106816601Y-37514397D01*
G37*
G36*
X122056601Y-7034397D02*
G01*
X122095305Y-7042096D01*
X122127340Y-7055365D01*
X122204680Y-7087400D01*
X122303115Y-7153173D01*
X122386827Y-7236885D01*
X122452600Y-7335320D01*
X122497904Y-7444696D01*
X122521000Y-7560805D01*
X122521000Y-7679195D01*
X122497904Y-7795304D01*
X122452600Y-7904680D01*
X122386827Y-8003115D01*
X122303115Y-8086827D01*
X122204680Y-8152600D01*
X122127340Y-8184635D01*
X122095305Y-8197904D01*
X122056601Y-8205603D01*
X121979195Y-8221000D01*
X121860805Y-8221000D01*
X121783399Y-8205603D01*
X121744695Y-8197904D01*
X121712660Y-8184635D01*
X121635320Y-8152600D01*
X121536885Y-8086827D01*
X121453173Y-8003115D01*
X121387400Y-7904680D01*
X121342096Y-7795304D01*
X121319000Y-7679195D01*
X121319000Y-7560805D01*
X121342096Y-7444696D01*
X121387400Y-7335320D01*
X121453173Y-7236885D01*
X121536885Y-7153173D01*
X121635320Y-7087400D01*
X121712660Y-7055365D01*
X121744695Y-7042096D01*
X121783399Y-7034397D01*
X121860805Y-7019000D01*
X121979195Y-7019000D01*
X122056601Y-7034397D01*
G37*
G36*
X129676601Y-7034397D02*
G01*
X129715305Y-7042096D01*
X129747340Y-7055365D01*
X129824680Y-7087400D01*
X129923115Y-7153173D01*
X130006827Y-7236885D01*
X130072600Y-7335320D01*
X130117904Y-7444696D01*
X130141000Y-7560805D01*
X130141000Y-7679195D01*
X130117904Y-7795304D01*
X130072600Y-7904680D01*
X130006827Y-8003115D01*
X129923115Y-8086827D01*
X129824680Y-8152600D01*
X129747340Y-8184635D01*
X129715305Y-8197904D01*
X129676601Y-8205603D01*
X129599195Y-8221000D01*
X129480805Y-8221000D01*
X129403399Y-8205603D01*
X129364695Y-8197904D01*
X129332660Y-8184635D01*
X129255320Y-8152600D01*
X129156885Y-8086827D01*
X129073173Y-8003115D01*
X129007400Y-7904680D01*
X128962096Y-7795304D01*
X128939000Y-7679195D01*
X128939000Y-7560805D01*
X128962096Y-7444696D01*
X129007400Y-7335320D01*
X129073173Y-7236885D01*
X129156885Y-7153173D01*
X129255320Y-7087400D01*
X129332660Y-7055365D01*
X129364695Y-7042096D01*
X129403399Y-7034397D01*
X129480805Y-7019000D01*
X129599195Y-7019000D01*
X129676601Y-7034397D01*
G37*
G36*
X124596601Y-7034397D02*
G01*
X124635305Y-7042096D01*
X124667340Y-7055365D01*
X124744680Y-7087400D01*
X124843115Y-7153173D01*
X124926827Y-7236885D01*
X124992600Y-7335320D01*
X125037904Y-7444696D01*
X125061000Y-7560805D01*
X125061000Y-7679195D01*
X125037904Y-7795304D01*
X124992600Y-7904680D01*
X124926827Y-8003115D01*
X124843115Y-8086827D01*
X124744680Y-8152600D01*
X124667340Y-8184635D01*
X124635305Y-8197904D01*
X124596601Y-8205603D01*
X124519195Y-8221000D01*
X124400805Y-8221000D01*
X124323399Y-8205603D01*
X124284695Y-8197904D01*
X124252660Y-8184635D01*
X124175320Y-8152600D01*
X124076885Y-8086827D01*
X123993173Y-8003115D01*
X123927400Y-7904680D01*
X123882096Y-7795304D01*
X123859000Y-7679195D01*
X123859000Y-7560805D01*
X123882096Y-7444696D01*
X123927400Y-7335320D01*
X123993173Y-7236885D01*
X124076885Y-7153173D01*
X124175320Y-7087400D01*
X124252660Y-7055365D01*
X124284695Y-7042096D01*
X124323399Y-7034397D01*
X124400805Y-7019000D01*
X124519195Y-7019000D01*
X124596601Y-7034397D01*
G37*
G36*
X127136601Y-7034397D02*
G01*
X127175305Y-7042096D01*
X127207340Y-7055365D01*
X127284680Y-7087400D01*
X127383115Y-7153173D01*
X127466827Y-7236885D01*
X127532600Y-7335320D01*
X127577904Y-7444696D01*
X127601000Y-7560805D01*
X127601000Y-7679195D01*
X127577904Y-7795304D01*
X127532600Y-7904680D01*
X127466827Y-8003115D01*
X127383115Y-8086827D01*
X127284680Y-8152600D01*
X127207340Y-8184635D01*
X127175305Y-8197904D01*
X127136601Y-8205603D01*
X127059195Y-8221000D01*
X126940805Y-8221000D01*
X126863399Y-8205603D01*
X126824695Y-8197904D01*
X126792660Y-8184635D01*
X126715320Y-8152600D01*
X126616885Y-8086827D01*
X126533173Y-8003115D01*
X126467400Y-7904680D01*
X126422096Y-7795304D01*
X126399000Y-7679195D01*
X126399000Y-7560805D01*
X126422096Y-7444696D01*
X126467400Y-7335320D01*
X126533173Y-7236885D01*
X126616885Y-7153173D01*
X126715320Y-7087400D01*
X126792660Y-7055365D01*
X126824695Y-7042096D01*
X126863399Y-7034397D01*
X126940805Y-7019000D01*
X127059195Y-7019000D01*
X127136601Y-7034397D01*
G37*
G36*
X71256601Y-7034397D02*
G01*
X71295305Y-7042096D01*
X71327340Y-7055365D01*
X71404680Y-7087400D01*
X71503115Y-7153173D01*
X71586827Y-7236885D01*
X71652600Y-7335320D01*
X71697904Y-7444696D01*
X71721000Y-7560805D01*
X71721000Y-7679195D01*
X71697904Y-7795304D01*
X71652600Y-7904680D01*
X71586827Y-8003115D01*
X71503115Y-8086827D01*
X71404680Y-8152600D01*
X71327340Y-8184635D01*
X71295305Y-8197904D01*
X71256601Y-8205603D01*
X71179195Y-8221000D01*
X71060805Y-8221000D01*
X70983399Y-8205603D01*
X70944695Y-8197904D01*
X70912660Y-8184635D01*
X70835320Y-8152600D01*
X70736885Y-8086827D01*
X70653173Y-8003115D01*
X70587400Y-7904680D01*
X70542096Y-7795304D01*
X70519000Y-7679195D01*
X70519000Y-7560805D01*
X70542096Y-7444696D01*
X70587400Y-7335320D01*
X70653173Y-7236885D01*
X70736885Y-7153173D01*
X70835320Y-7087400D01*
X70912660Y-7055365D01*
X70944695Y-7042096D01*
X70983399Y-7034397D01*
X71060805Y-7019000D01*
X71179195Y-7019000D01*
X71256601Y-7034397D01*
G37*
G36*
X149996601Y-7034397D02*
G01*
X150035305Y-7042096D01*
X150067340Y-7055365D01*
X150144680Y-7087400D01*
X150243115Y-7153173D01*
X150326827Y-7236885D01*
X150392600Y-7335320D01*
X150437904Y-7444696D01*
X150461000Y-7560805D01*
X150461000Y-7679195D01*
X150437904Y-7795304D01*
X150392600Y-7904680D01*
X150326827Y-8003115D01*
X150243115Y-8086827D01*
X150144680Y-8152600D01*
X150067340Y-8184635D01*
X150035305Y-8197904D01*
X149996601Y-8205603D01*
X149919195Y-8221000D01*
X149800805Y-8221000D01*
X149723399Y-8205603D01*
X149684695Y-8197904D01*
X149652660Y-8184635D01*
X149575320Y-8152600D01*
X149476885Y-8086827D01*
X149393173Y-8003115D01*
X149327400Y-7904680D01*
X149282096Y-7795304D01*
X149259000Y-7679195D01*
X149259000Y-7560805D01*
X149282096Y-7444696D01*
X149327400Y-7335320D01*
X149393173Y-7236885D01*
X149476885Y-7153173D01*
X149575320Y-7087400D01*
X149652660Y-7055365D01*
X149684695Y-7042096D01*
X149723399Y-7034397D01*
X149800805Y-7019000D01*
X149919195Y-7019000D01*
X149996601Y-7034397D01*
G37*
G36*
X147456601Y-7034397D02*
G01*
X147495305Y-7042096D01*
X147527340Y-7055365D01*
X147604680Y-7087400D01*
X147703115Y-7153173D01*
X147786827Y-7236885D01*
X147852600Y-7335320D01*
X147897904Y-7444696D01*
X147921000Y-7560805D01*
X147921000Y-7679195D01*
X147897904Y-7795304D01*
X147852600Y-7904680D01*
X147786827Y-8003115D01*
X147703115Y-8086827D01*
X147604680Y-8152600D01*
X147527340Y-8184635D01*
X147495305Y-8197904D01*
X147456601Y-8205603D01*
X147379195Y-8221000D01*
X147260805Y-8221000D01*
X147183399Y-8205603D01*
X147144695Y-8197904D01*
X147112660Y-8184635D01*
X147035320Y-8152600D01*
X146936885Y-8086827D01*
X146853173Y-8003115D01*
X146787400Y-7904680D01*
X146742096Y-7795304D01*
X146719000Y-7679195D01*
X146719000Y-7560805D01*
X146742096Y-7444696D01*
X146787400Y-7335320D01*
X146853173Y-7236885D01*
X146936885Y-7153173D01*
X147035320Y-7087400D01*
X147112660Y-7055365D01*
X147144695Y-7042096D01*
X147183399Y-7034397D01*
X147260805Y-7019000D01*
X147379195Y-7019000D01*
X147456601Y-7034397D01*
G37*
G36*
X152536601Y-7034397D02*
G01*
X152575305Y-7042096D01*
X152607340Y-7055365D01*
X152684680Y-7087400D01*
X152783115Y-7153173D01*
X152866827Y-7236885D01*
X152932600Y-7335320D01*
X152977904Y-7444696D01*
X153001000Y-7560805D01*
X153001000Y-7679195D01*
X152977904Y-7795304D01*
X152932600Y-7904680D01*
X152866827Y-8003115D01*
X152783115Y-8086827D01*
X152684680Y-8152600D01*
X152607340Y-8184635D01*
X152575305Y-8197904D01*
X152536601Y-8205603D01*
X152459195Y-8221000D01*
X152340805Y-8221000D01*
X152263399Y-8205603D01*
X152224695Y-8197904D01*
X152192660Y-8184635D01*
X152115320Y-8152600D01*
X152016885Y-8086827D01*
X151933173Y-8003115D01*
X151867400Y-7904680D01*
X151822096Y-7795304D01*
X151799000Y-7679195D01*
X151799000Y-7560805D01*
X151822096Y-7444696D01*
X151867400Y-7335320D01*
X151933173Y-7236885D01*
X152016885Y-7153173D01*
X152115320Y-7087400D01*
X152192660Y-7055365D01*
X152224695Y-7042096D01*
X152263399Y-7034397D01*
X152340805Y-7019000D01*
X152459195Y-7019000D01*
X152536601Y-7034397D01*
G37*
G36*
X155076601Y-7034397D02*
G01*
X155115305Y-7042096D01*
X155147340Y-7055365D01*
X155224680Y-7087400D01*
X155323115Y-7153173D01*
X155406827Y-7236885D01*
X155472600Y-7335320D01*
X155517904Y-7444696D01*
X155541000Y-7560805D01*
X155541000Y-7679195D01*
X155517904Y-7795304D01*
X155472600Y-7904680D01*
X155406827Y-8003115D01*
X155323115Y-8086827D01*
X155224680Y-8152600D01*
X155147340Y-8184635D01*
X155115305Y-8197904D01*
X155076601Y-8205603D01*
X154999195Y-8221000D01*
X154880805Y-8221000D01*
X154803399Y-8205603D01*
X154764695Y-8197904D01*
X154732660Y-8184635D01*
X154655320Y-8152600D01*
X154556885Y-8086827D01*
X154473173Y-8003115D01*
X154407400Y-7904680D01*
X154362096Y-7795304D01*
X154339000Y-7679195D01*
X154339000Y-7560805D01*
X154362096Y-7444696D01*
X154407400Y-7335320D01*
X154473173Y-7236885D01*
X154556885Y-7153173D01*
X154655320Y-7087400D01*
X154732660Y-7055365D01*
X154764695Y-7042096D01*
X154803399Y-7034397D01*
X154880805Y-7019000D01*
X154999195Y-7019000D01*
X155076601Y-7034397D01*
G37*
G36*
X157616601Y-7034397D02*
G01*
X157655305Y-7042096D01*
X157687340Y-7055365D01*
X157764680Y-7087400D01*
X157863115Y-7153173D01*
X157946827Y-7236885D01*
X158012600Y-7335320D01*
X158057904Y-7444696D01*
X158081000Y-7560805D01*
X158081000Y-7679195D01*
X158057904Y-7795304D01*
X158012600Y-7904680D01*
X157946827Y-8003115D01*
X157863115Y-8086827D01*
X157764680Y-8152600D01*
X157687340Y-8184635D01*
X157655305Y-8197904D01*
X157616601Y-8205603D01*
X157539195Y-8221000D01*
X157420805Y-8221000D01*
X157343399Y-8205603D01*
X157304695Y-8197904D01*
X157272660Y-8184635D01*
X157195320Y-8152600D01*
X157096885Y-8086827D01*
X157013173Y-8003115D01*
X156947400Y-7904680D01*
X156902096Y-7795304D01*
X156879000Y-7679195D01*
X156879000Y-7560805D01*
X156902096Y-7444696D01*
X156947400Y-7335320D01*
X157013173Y-7236885D01*
X157096885Y-7153173D01*
X157195320Y-7087400D01*
X157272660Y-7055365D01*
X157304695Y-7042096D01*
X157343399Y-7034397D01*
X157420805Y-7019000D01*
X157539195Y-7019000D01*
X157616601Y-7034397D01*
G37*
G36*
X104276601Y-7034397D02*
G01*
X104315305Y-7042096D01*
X104347340Y-7055365D01*
X104424680Y-7087400D01*
X104523115Y-7153173D01*
X104606827Y-7236885D01*
X104672600Y-7335320D01*
X104717904Y-7444696D01*
X104741000Y-7560805D01*
X104741000Y-7679195D01*
X104717904Y-7795304D01*
X104672600Y-7904680D01*
X104606827Y-8003115D01*
X104523115Y-8086827D01*
X104424680Y-8152600D01*
X104347340Y-8184635D01*
X104315305Y-8197904D01*
X104276601Y-8205603D01*
X104199195Y-8221000D01*
X104080805Y-8221000D01*
X104003399Y-8205603D01*
X103964695Y-8197904D01*
X103932660Y-8184635D01*
X103855320Y-8152600D01*
X103756885Y-8086827D01*
X103673173Y-8003115D01*
X103607400Y-7904680D01*
X103562096Y-7795304D01*
X103539000Y-7679195D01*
X103539000Y-7560805D01*
X103562096Y-7444696D01*
X103607400Y-7335320D01*
X103673173Y-7236885D01*
X103756885Y-7153173D01*
X103855320Y-7087400D01*
X103932660Y-7055365D01*
X103964695Y-7042096D01*
X104003399Y-7034397D01*
X104080805Y-7019000D01*
X104199195Y-7019000D01*
X104276601Y-7034397D01*
G37*
G36*
X101736601Y-7034397D02*
G01*
X101775305Y-7042096D01*
X101807340Y-7055365D01*
X101884680Y-7087400D01*
X101983115Y-7153173D01*
X102066827Y-7236885D01*
X102132600Y-7335320D01*
X102177904Y-7444696D01*
X102201000Y-7560805D01*
X102201000Y-7679195D01*
X102177904Y-7795304D01*
X102132600Y-7904680D01*
X102066827Y-8003115D01*
X101983115Y-8086827D01*
X101884680Y-8152600D01*
X101807340Y-8184635D01*
X101775305Y-8197904D01*
X101736601Y-8205603D01*
X101659195Y-8221000D01*
X101540805Y-8221000D01*
X101463399Y-8205603D01*
X101424695Y-8197904D01*
X101392660Y-8184635D01*
X101315320Y-8152600D01*
X101216885Y-8086827D01*
X101133173Y-8003115D01*
X101067400Y-7904680D01*
X101022096Y-7795304D01*
X100999000Y-7679195D01*
X100999000Y-7560805D01*
X101022096Y-7444696D01*
X101067400Y-7335320D01*
X101133173Y-7236885D01*
X101216885Y-7153173D01*
X101315320Y-7087400D01*
X101392660Y-7055365D01*
X101424695Y-7042096D01*
X101463399Y-7034397D01*
X101540805Y-7019000D01*
X101659195Y-7019000D01*
X101736601Y-7034397D01*
G37*
G36*
X99196601Y-7034397D02*
G01*
X99235305Y-7042096D01*
X99267340Y-7055365D01*
X99344680Y-7087400D01*
X99443115Y-7153173D01*
X99526827Y-7236885D01*
X99592600Y-7335320D01*
X99637904Y-7444696D01*
X99661000Y-7560805D01*
X99661000Y-7679195D01*
X99637904Y-7795304D01*
X99592600Y-7904680D01*
X99526827Y-8003115D01*
X99443115Y-8086827D01*
X99344680Y-8152600D01*
X99267340Y-8184635D01*
X99235305Y-8197904D01*
X99196601Y-8205603D01*
X99119195Y-8221000D01*
X99000805Y-8221000D01*
X98923399Y-8205603D01*
X98884695Y-8197904D01*
X98852660Y-8184635D01*
X98775320Y-8152600D01*
X98676885Y-8086827D01*
X98593173Y-8003115D01*
X98527400Y-7904680D01*
X98482096Y-7795304D01*
X98459000Y-7679195D01*
X98459000Y-7560805D01*
X98482096Y-7444696D01*
X98527400Y-7335320D01*
X98593173Y-7236885D01*
X98676885Y-7153173D01*
X98775320Y-7087400D01*
X98852660Y-7055365D01*
X98884695Y-7042096D01*
X98923399Y-7034397D01*
X99000805Y-7019000D01*
X99119195Y-7019000D01*
X99196601Y-7034397D01*
G37*
G36*
X96656601Y-7034397D02*
G01*
X96695305Y-7042096D01*
X96727340Y-7055365D01*
X96804680Y-7087400D01*
X96903115Y-7153173D01*
X96986827Y-7236885D01*
X97052600Y-7335320D01*
X97097904Y-7444696D01*
X97121000Y-7560805D01*
X97121000Y-7679195D01*
X97097904Y-7795304D01*
X97052600Y-7904680D01*
X96986827Y-8003115D01*
X96903115Y-8086827D01*
X96804680Y-8152600D01*
X96727340Y-8184635D01*
X96695305Y-8197904D01*
X96656601Y-8205603D01*
X96579195Y-8221000D01*
X96460805Y-8221000D01*
X96383399Y-8205603D01*
X96344695Y-8197904D01*
X96312660Y-8184635D01*
X96235320Y-8152600D01*
X96136885Y-8086827D01*
X96053173Y-8003115D01*
X95987400Y-7904680D01*
X95942096Y-7795304D01*
X95919000Y-7679195D01*
X95919000Y-7560805D01*
X95942096Y-7444696D01*
X95987400Y-7335320D01*
X96053173Y-7236885D01*
X96136885Y-7153173D01*
X96235320Y-7087400D01*
X96312660Y-7055365D01*
X96344695Y-7042096D01*
X96383399Y-7034397D01*
X96460805Y-7019000D01*
X96579195Y-7019000D01*
X96656601Y-7034397D01*
G37*
G36*
X132216601Y-7034397D02*
G01*
X132255305Y-7042096D01*
X132287340Y-7055365D01*
X132364680Y-7087400D01*
X132463115Y-7153173D01*
X132546827Y-7236885D01*
X132612600Y-7335320D01*
X132657904Y-7444696D01*
X132681000Y-7560805D01*
X132681000Y-7679195D01*
X132657904Y-7795304D01*
X132612600Y-7904680D01*
X132546827Y-8003115D01*
X132463115Y-8086827D01*
X132364680Y-8152600D01*
X132287340Y-8184635D01*
X132255305Y-8197904D01*
X132216601Y-8205603D01*
X132139195Y-8221000D01*
X132020805Y-8221000D01*
X131943399Y-8205603D01*
X131904695Y-8197904D01*
X131872660Y-8184635D01*
X131795320Y-8152600D01*
X131696885Y-8086827D01*
X131613173Y-8003115D01*
X131547400Y-7904680D01*
X131502096Y-7795304D01*
X131479000Y-7679195D01*
X131479000Y-7560805D01*
X131502096Y-7444696D01*
X131547400Y-7335320D01*
X131613173Y-7236885D01*
X131696885Y-7153173D01*
X131795320Y-7087400D01*
X131872660Y-7055365D01*
X131904695Y-7042096D01*
X131943399Y-7034397D01*
X132020805Y-7019000D01*
X132139195Y-7019000D01*
X132216601Y-7034397D01*
G37*
G36*
X81416601Y-7034397D02*
G01*
X81455305Y-7042096D01*
X81487340Y-7055365D01*
X81564680Y-7087400D01*
X81663115Y-7153173D01*
X81746827Y-7236885D01*
X81812600Y-7335320D01*
X81857904Y-7444696D01*
X81881000Y-7560805D01*
X81881000Y-7679195D01*
X81857904Y-7795304D01*
X81812600Y-7904680D01*
X81746827Y-8003115D01*
X81663115Y-8086827D01*
X81564680Y-8152600D01*
X81487340Y-8184635D01*
X81455305Y-8197904D01*
X81416601Y-8205603D01*
X81339195Y-8221000D01*
X81220805Y-8221000D01*
X81143399Y-8205603D01*
X81104695Y-8197904D01*
X81072660Y-8184635D01*
X80995320Y-8152600D01*
X80896885Y-8086827D01*
X80813173Y-8003115D01*
X80747400Y-7904680D01*
X80702096Y-7795304D01*
X80679000Y-7679195D01*
X80679000Y-7560805D01*
X80702096Y-7444696D01*
X80747400Y-7335320D01*
X80813173Y-7236885D01*
X80896885Y-7153173D01*
X80995320Y-7087400D01*
X81072660Y-7055365D01*
X81104695Y-7042096D01*
X81143399Y-7034397D01*
X81220805Y-7019000D01*
X81339195Y-7019000D01*
X81416601Y-7034397D01*
G37*
G36*
X73796601Y-7034397D02*
G01*
X73835305Y-7042096D01*
X73867340Y-7055365D01*
X73944680Y-7087400D01*
X74043115Y-7153173D01*
X74126827Y-7236885D01*
X74192600Y-7335320D01*
X74237904Y-7444696D01*
X74261000Y-7560805D01*
X74261000Y-7679195D01*
X74237904Y-7795304D01*
X74192600Y-7904680D01*
X74126827Y-8003115D01*
X74043115Y-8086827D01*
X73944680Y-8152600D01*
X73867340Y-8184635D01*
X73835305Y-8197904D01*
X73796601Y-8205603D01*
X73719195Y-8221000D01*
X73600805Y-8221000D01*
X73523399Y-8205603D01*
X73484695Y-8197904D01*
X73452660Y-8184635D01*
X73375320Y-8152600D01*
X73276885Y-8086827D01*
X73193173Y-8003115D01*
X73127400Y-7904680D01*
X73082096Y-7795304D01*
X73059000Y-7679195D01*
X73059000Y-7560805D01*
X73082096Y-7444696D01*
X73127400Y-7335320D01*
X73193173Y-7236885D01*
X73276885Y-7153173D01*
X73375320Y-7087400D01*
X73452660Y-7055365D01*
X73484695Y-7042096D01*
X73523399Y-7034397D01*
X73600805Y-7019000D01*
X73719195Y-7019000D01*
X73796601Y-7034397D01*
G37*
G36*
X76336601Y-7034397D02*
G01*
X76375305Y-7042096D01*
X76407340Y-7055365D01*
X76484680Y-7087400D01*
X76583115Y-7153173D01*
X76666827Y-7236885D01*
X76732600Y-7335320D01*
X76777904Y-7444696D01*
X76801000Y-7560805D01*
X76801000Y-7679195D01*
X76777904Y-7795304D01*
X76732600Y-7904680D01*
X76666827Y-8003115D01*
X76583115Y-8086827D01*
X76484680Y-8152600D01*
X76407340Y-8184635D01*
X76375305Y-8197904D01*
X76336601Y-8205603D01*
X76259195Y-8221000D01*
X76140805Y-8221000D01*
X76063399Y-8205603D01*
X76024695Y-8197904D01*
X75992660Y-8184635D01*
X75915320Y-8152600D01*
X75816885Y-8086827D01*
X75733173Y-8003115D01*
X75667400Y-7904680D01*
X75622096Y-7795304D01*
X75599000Y-7679195D01*
X75599000Y-7560805D01*
X75622096Y-7444696D01*
X75667400Y-7335320D01*
X75733173Y-7236885D01*
X75816885Y-7153173D01*
X75915320Y-7087400D01*
X75992660Y-7055365D01*
X76024695Y-7042096D01*
X76063399Y-7034397D01*
X76140805Y-7019000D01*
X76259195Y-7019000D01*
X76336601Y-7034397D01*
G37*
G36*
X106816601Y-7034397D02*
G01*
X106855305Y-7042096D01*
X106887340Y-7055365D01*
X106964680Y-7087400D01*
X107063115Y-7153173D01*
X107146827Y-7236885D01*
X107212600Y-7335320D01*
X107257904Y-7444696D01*
X107281000Y-7560805D01*
X107281000Y-7679195D01*
X107257904Y-7795304D01*
X107212600Y-7904680D01*
X107146827Y-8003115D01*
X107063115Y-8086827D01*
X106964680Y-8152600D01*
X106887340Y-8184635D01*
X106855305Y-8197904D01*
X106816601Y-8205603D01*
X106739195Y-8221000D01*
X106620805Y-8221000D01*
X106543399Y-8205603D01*
X106504695Y-8197904D01*
X106472660Y-8184635D01*
X106395320Y-8152600D01*
X106296885Y-8086827D01*
X106213173Y-8003115D01*
X106147400Y-7904680D01*
X106102096Y-7795304D01*
X106079000Y-7679195D01*
X106079000Y-7560805D01*
X106102096Y-7444696D01*
X106147400Y-7335320D01*
X106213173Y-7236885D01*
X106296885Y-7153173D01*
X106395320Y-7087400D01*
X106472660Y-7055365D01*
X106504695Y-7042096D01*
X106543399Y-7034397D01*
X106620805Y-7019000D01*
X106739195Y-7019000D01*
X106816601Y-7034397D01*
G37*
G36*
X78876601Y-7034397D02*
G01*
X78915305Y-7042096D01*
X78947340Y-7055365D01*
X79024680Y-7087400D01*
X79123115Y-7153173D01*
X79206827Y-7236885D01*
X79272600Y-7335320D01*
X79317904Y-7444696D01*
X79341000Y-7560805D01*
X79341000Y-7679195D01*
X79317904Y-7795304D01*
X79272600Y-7904680D01*
X79206827Y-8003115D01*
X79123115Y-8086827D01*
X79024680Y-8152600D01*
X78947340Y-8184635D01*
X78915305Y-8197904D01*
X78876601Y-8205603D01*
X78799195Y-8221000D01*
X78680805Y-8221000D01*
X78603399Y-8205603D01*
X78564695Y-8197904D01*
X78532660Y-8184635D01*
X78455320Y-8152600D01*
X78356885Y-8086827D01*
X78273173Y-8003115D01*
X78207400Y-7904680D01*
X78162096Y-7795304D01*
X78139000Y-7679195D01*
X78139000Y-7560805D01*
X78162096Y-7444696D01*
X78207400Y-7335320D01*
X78273173Y-7236885D01*
X78356885Y-7153173D01*
X78455320Y-7087400D01*
X78532660Y-7055365D01*
X78564695Y-7042096D01*
X78603399Y-7034397D01*
X78680805Y-7019000D01*
X78799195Y-7019000D01*
X78876601Y-7034397D01*
G37*
G36*
X72155787Y5954538D02*
G01*
X72155790Y5954537D01*
X72155789Y5954537D01*
X72802029Y5686856D01*
X73383631Y5298242D01*
X73878242Y4803631D01*
X74266856Y4222029D01*
X74266856Y4222028D01*
X74534538Y3575787D01*
X74671000Y2889744D01*
X74671000Y2190256D01*
X74534538Y1504213D01*
X74534537Y1504211D01*
X74266856Y857971D01*
X73878242Y276369D01*
X73383631Y-218242D01*
X72802029Y-606856D01*
X72345068Y-796135D01*
X72155787Y-874538D01*
X71469744Y-1011000D01*
X70770256Y-1011000D01*
X70084213Y-874538D01*
X69894932Y-796135D01*
X69437971Y-606856D01*
X68856369Y-218242D01*
X68361758Y276369D01*
X67973144Y857971D01*
X67705463Y1504211D01*
X67705462Y1504213D01*
X67569000Y2190256D01*
X67569000Y2889744D01*
X67705462Y3575787D01*
X67973144Y4222028D01*
X67973144Y4222029D01*
X68361758Y4803631D01*
X68856369Y5298242D01*
X69437971Y5686856D01*
X70084211Y5954537D01*
X70084210Y5954537D01*
X70084213Y5954538D01*
X70770256Y6091000D01*
X71469744Y6091000D01*
X72155787Y5954538D01*
G37*
G36*
X158515787Y5954538D02*
G01*
X158515790Y5954537D01*
X158515789Y5954537D01*
X159162029Y5686856D01*
X159743631Y5298242D01*
X160238242Y4803631D01*
X160626856Y4222029D01*
X160626856Y4222028D01*
X160894538Y3575787D01*
X161031000Y2889744D01*
X161031000Y2190256D01*
X160894538Y1504213D01*
X160894537Y1504211D01*
X160626856Y857971D01*
X160238242Y276369D01*
X159743631Y-218242D01*
X159162029Y-606856D01*
X158705068Y-796135D01*
X158515787Y-874538D01*
X157829744Y-1011000D01*
X157130256Y-1011000D01*
X156444213Y-874538D01*
X156254932Y-796135D01*
X155797971Y-606856D01*
X155216369Y-218242D01*
X154721758Y276369D01*
X154333144Y857971D01*
X154065463Y1504211D01*
X154065462Y1504213D01*
X153929000Y2190256D01*
X153929000Y2889744D01*
X154065462Y3575787D01*
X154333144Y4222028D01*
X154333144Y4222029D01*
X154721758Y4803631D01*
X155216369Y5298242D01*
X155797971Y5686856D01*
X156444211Y5954537D01*
X156444210Y5954537D01*
X156444213Y5954538D01*
X157130256Y6091000D01*
X157829744Y6091000D01*
X158515787Y5954538D01*
G37*
M02*
