G04 #@! TF.GenerationSoftware,KiCad,Pcbnew,5.1.5-5.1.5*
G04 #@! TF.CreationDate,2019-12-29T19:55:11+11:00*
G04 #@! TF.ProjectId,inchdigits,696e6368-6469-4676-9974-732e6b696361,rev?*
G04 #@! TF.SameCoordinates,Original*
G04 #@! TF.FileFunction,Copper,L1,Top*
G04 #@! TF.FilePolarity,Positive*
%FSLAX46Y46*%
G04 Gerber Fmt 4.6, Leading zero omitted, Abs format (unit mm)*
G04 Created by KiCad (PCBNEW 5.1.5-5.1.5) date 2019-12-29 19:55:11*
%MOMM*%
%LPD*%
G04 APERTURE LIST*
%ADD10C,1.600000*%
%ADD11C,7.000000*%
%ADD12C,2.000000*%
%ADD13O,1.700000X1.700000*%
%ADD14R,1.700000X1.700000*%
%ADD15R,1.100000X1.100000*%
%ADD16C,1.100000*%
%ADD17C,0.800000*%
%ADD18C,0.300000*%
%ADD19C,0.250000*%
G04 APERTURE END LIST*
D10*
X101600000Y-62540000D03*
X101600000Y-66040000D03*
X129540000Y-61040000D03*
X129540000Y-66040000D03*
D11*
X157480000Y-78740000D03*
X71120000Y-78740000D03*
X157480000Y2540000D03*
X71120000Y2540000D03*
D12*
X150980000Y-66040000D03*
X150980000Y-61540000D03*
X157480000Y-66040000D03*
X157480000Y-61540000D03*
X138280000Y-66040000D03*
X138280000Y-61540000D03*
X144780000Y-66040000D03*
X144780000Y-61540000D03*
X84940000Y-66040000D03*
X84940000Y-61540000D03*
X91440000Y-66040000D03*
X91440000Y-61540000D03*
X72240000Y-66040000D03*
X72240000Y-61540000D03*
X78740000Y-66040000D03*
X78740000Y-61540000D03*
X150980000Y-53340000D03*
X150980000Y-48840000D03*
X157480000Y-53340000D03*
X157480000Y-48840000D03*
X138280000Y-53340000D03*
X138280000Y-48840000D03*
X144780000Y-53340000D03*
X144780000Y-48840000D03*
X84940000Y-53340000D03*
X84940000Y-48840000D03*
X91440000Y-53340000D03*
X91440000Y-48840000D03*
X72240000Y-53340000D03*
X72240000Y-48840000D03*
X78740000Y-53340000D03*
X78740000Y-48840000D03*
D13*
X116840000Y-73660000D03*
X114300000Y-73660000D03*
X111760000Y-73660000D03*
D14*
X109220000Y-73660000D03*
D15*
X147320000Y-38100000D03*
D16*
X149860000Y-38100000D03*
X152400000Y-38100000D03*
X154940000Y-38100000D03*
X157480000Y-38100000D03*
X157480000Y-7620000D03*
X154940000Y-7620000D03*
X152400000Y-7620000D03*
X149860000Y-7620000D03*
X147320000Y-7620000D03*
D15*
X121920000Y-38100000D03*
D16*
X124460000Y-38100000D03*
X127000000Y-38100000D03*
X129540000Y-38100000D03*
X132080000Y-38100000D03*
X132080000Y-7620000D03*
X129540000Y-7620000D03*
X127000000Y-7620000D03*
X124460000Y-7620000D03*
X121920000Y-7620000D03*
D15*
X96520000Y-38100000D03*
D16*
X99060000Y-38100000D03*
X101600000Y-38100000D03*
X104140000Y-38100000D03*
X106680000Y-38100000D03*
X106680000Y-7620000D03*
X104140000Y-7620000D03*
X101600000Y-7620000D03*
X99060000Y-7620000D03*
X96520000Y-7620000D03*
D15*
X71120000Y-38100000D03*
D16*
X73660000Y-38100000D03*
X76200000Y-38100000D03*
X78740000Y-38100000D03*
X81280000Y-38100000D03*
X81280000Y-7620000D03*
X78740000Y-7620000D03*
X76200000Y-7620000D03*
X73660000Y-7620000D03*
X71120000Y-7620000D03*
D17*
X108585000Y-49519800D03*
D18*
X108585000Y-55749100D02*
X124249100Y-55749100D01*
X124249100Y-55749100D02*
X129540000Y-61040000D01*
X101600000Y-62540000D02*
X108390900Y-55749100D01*
X108390900Y-55749100D02*
X108585000Y-55749100D01*
X108585000Y-55749100D02*
X108585000Y-49519800D01*
X114300000Y-73660000D02*
X115500300Y-73660000D01*
X129540000Y-66040000D02*
X122747200Y-66040000D01*
X122747200Y-66040000D02*
X115500300Y-73286900D01*
X115500300Y-73286900D02*
X115500300Y-73660000D01*
X114300000Y-73660000D02*
X113099700Y-73660000D01*
X113099700Y-73660000D02*
X113099700Y-73284900D01*
X113099700Y-73284900D02*
X105854800Y-66040000D01*
X105854800Y-66040000D02*
X101600000Y-66040000D01*
D19*
X96520000Y-38100000D02*
X95644700Y-38100000D01*
X71120000Y-38100000D02*
X71995300Y-38100000D01*
X71995300Y-38100000D02*
X72876800Y-38981500D01*
X72876800Y-38981500D02*
X74080400Y-38981500D01*
X74080400Y-38981500D02*
X76324300Y-36737600D01*
X76324300Y-36737600D02*
X94282300Y-36737600D01*
X94282300Y-36737600D02*
X95644700Y-38100000D01*
X122795300Y-38100000D02*
X123684000Y-38988700D01*
X123684000Y-38988700D02*
X124873200Y-38988700D01*
X124873200Y-38988700D02*
X126637200Y-37224700D01*
X126637200Y-37224700D02*
X145569400Y-37224700D01*
X145569400Y-37224700D02*
X146444700Y-38100000D01*
X121920000Y-38100000D02*
X122795300Y-38100000D01*
X121482400Y-38100000D02*
X121920000Y-38100000D01*
X147320000Y-38100000D02*
X146444700Y-38100000D01*
X121482400Y-38100000D02*
X121044700Y-38100000D01*
X96520000Y-38100000D02*
X97395300Y-38100000D01*
X121044700Y-38100000D02*
X119708200Y-36763500D01*
X119708200Y-36763500D02*
X101698400Y-36763500D01*
X101698400Y-36763500D02*
X99486600Y-38975300D01*
X99486600Y-38975300D02*
X98270600Y-38975300D01*
X98270600Y-38975300D02*
X97395300Y-38100000D01*
X149860000Y-38100000D02*
X148517100Y-36757100D01*
X148517100Y-36757100D02*
X125802900Y-36757100D01*
X125802900Y-36757100D02*
X124460000Y-38100000D01*
X99060000Y-38100000D02*
X100848500Y-36311500D01*
X100848500Y-36311500D02*
X122671500Y-36311500D01*
X122671500Y-36311500D02*
X124460000Y-38100000D01*
X149860000Y-38100000D02*
X150740000Y-37220000D01*
X150740000Y-37220000D02*
X157843000Y-37220000D01*
X157843000Y-37220000D02*
X158424200Y-37801200D01*
X158424200Y-37801200D02*
X158424200Y-47895800D01*
X158424200Y-47895800D02*
X157480000Y-48840000D01*
X99060000Y-38100000D02*
X97247200Y-36287200D01*
X97247200Y-36287200D02*
X75472800Y-36287200D01*
X75472800Y-36287200D02*
X73660000Y-38100000D01*
X157480000Y-61540000D02*
X150980000Y-61540000D01*
X157480000Y-48840000D02*
X150980000Y-48840000D01*
X78740000Y-38100000D02*
X79631300Y-37208700D01*
X79631300Y-37208700D02*
X92894800Y-37208700D01*
X92894800Y-37208700D02*
X95162700Y-39476600D01*
X95162700Y-39476600D02*
X102763400Y-39476600D01*
X102763400Y-39476600D02*
X104140000Y-38100000D01*
X104140000Y-38100000D02*
X105015300Y-37224700D01*
X105015300Y-37224700D02*
X107511300Y-37224700D01*
X107511300Y-37224700D02*
X109725700Y-39439100D01*
X109725700Y-39439100D02*
X128200900Y-39439100D01*
X128200900Y-39439100D02*
X129540000Y-38100000D01*
X144780000Y-61540000D02*
X138280000Y-61540000D01*
X144780000Y-48840000D02*
X138280000Y-48840000D01*
X106680000Y-38100000D02*
X105593900Y-38100000D01*
X105593900Y-38100000D02*
X103767000Y-39926900D01*
X103767000Y-39926900D02*
X83106900Y-39926900D01*
X83106900Y-39926900D02*
X81280000Y-38100000D01*
X106680000Y-38100000D02*
X108469400Y-39889400D01*
X108469400Y-39889400D02*
X130290600Y-39889400D01*
X130290600Y-39889400D02*
X132080000Y-38100000D01*
X132080000Y-38100000D02*
X132997800Y-39017800D01*
X132997800Y-39017800D02*
X156562200Y-39017800D01*
X156562200Y-39017800D02*
X157480000Y-38100000D01*
X84940000Y-48840000D02*
X91440000Y-48840000D01*
X157480000Y-7620000D02*
X156132800Y-6272800D01*
X156132800Y-6272800D02*
X133427200Y-6272800D01*
X133427200Y-6272800D02*
X132080000Y-7620000D01*
X132080000Y-7620000D02*
X130712900Y-6252900D01*
X130712900Y-6252900D02*
X108047100Y-6252900D01*
X108047100Y-6252900D02*
X106680000Y-7620000D01*
X78740000Y-61540000D02*
X72240000Y-61540000D01*
X73660000Y-7620000D02*
X74536300Y-6743700D01*
X74536300Y-6743700D02*
X98183700Y-6743700D01*
X98183700Y-6743700D02*
X99060000Y-7620000D01*
X149860000Y-7620000D02*
X148964400Y-6724400D01*
X148964400Y-6724400D02*
X136373900Y-6724400D01*
X136373900Y-6724400D02*
X134563200Y-8535100D01*
X134563200Y-8535100D02*
X125375100Y-8535100D01*
X125375100Y-8535100D02*
X124460000Y-7620000D01*
X99060000Y-7620000D02*
X99970700Y-8530700D01*
X99970700Y-8530700D02*
X117703300Y-8530700D01*
X117703300Y-8530700D02*
X119530700Y-6703300D01*
X119530700Y-6703300D02*
X123543300Y-6703300D01*
X123543300Y-6703300D02*
X124460000Y-7620000D01*
X71120000Y-7620000D02*
X72005500Y-8505500D01*
X72005500Y-8505500D02*
X95634500Y-8505500D01*
X95634500Y-8505500D02*
X96520000Y-7620000D01*
X96520000Y-7620000D02*
X97882000Y-8982000D01*
X97882000Y-8982000D02*
X120558000Y-8982000D01*
X120558000Y-8982000D02*
X121920000Y-7620000D01*
X121920000Y-7620000D02*
X123285500Y-8985500D01*
X123285500Y-8985500D02*
X145954500Y-8985500D01*
X145954500Y-8985500D02*
X147320000Y-7620000D01*
X91440000Y-53340000D02*
X84940000Y-53340000D01*
X144780000Y-53340000D02*
X138280000Y-53340000D01*
X78740000Y-53340000D02*
X72240000Y-53340000D01*
X157480000Y-53340000D02*
X150980000Y-53340000D01*
X144780000Y-53340000D02*
X150980000Y-53340000D01*
X91440000Y-66040000D02*
X92565400Y-64914600D01*
X92565400Y-64914600D02*
X137154600Y-64914600D01*
X137154600Y-64914600D02*
X138280000Y-66040000D01*
X84940000Y-66040000D02*
X91440000Y-66040000D01*
X144780000Y-66040000D02*
X138280000Y-66040000D01*
X150980000Y-66040000D02*
X144780000Y-66040000D01*
X157480000Y-66040000D02*
X150980000Y-66040000D01*
X72240000Y-66040000D02*
X78740000Y-66040000D01*
X78740000Y-66040000D02*
X84940000Y-66040000D01*
M02*
